<?xml version="1.0" encoding="UTF-8"?>
<svg version="1.1" xmlns="http://www.w3.org/2000/svg" width="1920" height="1920">
<path d="M0 0 C4.72136137 0.01709016 9.44221478 0.00688948 14.16355896 -0.01032257 C48.10664108 -0.11489372 81.94903134 1.61346679 115.66601562 5.64111328 C116.54405853 5.74338226 117.42210144 5.84565125 118.32675171 5.95101929 C205.14032394 16.11673379 290.53598452 38.27601289 434.66601562 100.39111328 C435.54016113 100.81457031 436.41430664 101.23802734 437.31494141 101.67431641 C450.17189177 107.90649285 462.5981199 114.77064439 474.99267578 121.87304688 C478.09367327 123.63396033 481.22071467 125.34240391 484.35400391 127.04492188 C519.46185333 146.19245731 552.88027982 169.1786016 584.66601562 193.39111328 C585.23803711 193.82665527 585.81005859 194.26219727 586.39941406 194.7109375 C590.16901358 197.5862244 593.92102832 200.48385014 597.66601562 203.39111328 C598.23030273 203.8277832 598.79458984 204.26445312 599.37597656 204.71435547 C607.43686413 210.95895827 615.30848295 217.38356705 623.05273438 224.01611328 C624.67676073 225.40027134 626.3102273 226.77237815 627.94726562 228.14111328 C634.35371713 233.50456555 640.59852526 238.99738472 646.71679688 244.68798828 C648.90290864 246.71174889 651.13346375 248.67612039 653.38378906 250.62817383 C657.37072272 254.11227171 661.2706252 257.67767311 665.13085938 261.30126953 C665.81478256 261.94314713 666.49870575 262.58502472 667.20335388 263.24635315 C674.31609829 269.95524362 681.25769474 276.83109894 688.16040039 283.75512695 C690.25551654 285.85568432 692.35603872 287.95073202 694.45703125 290.04541016 C695.81998275 291.40902139 697.1826246 292.77294221 698.54492188 294.13720703 C699.15856094 294.74882187 699.77220001 295.36043671 700.4044342 295.99058533 C704.11244896 299.71846144 707.63381876 303.5635863 711.06468201 307.54823303 C713.68809639 310.56736564 716.43061518 313.47376539 719.16601562 316.39111328 C723.7574927 321.31612586 728.2989849 326.26459895 732.66601562 331.39111328 C733.50648437 332.37595703 734.34695313 333.36080078 735.21289062 334.37548828 C744.96622884 345.83694176 754.41884149 357.51865366 763.66601562 369.39111328 C764.4678125 370.41849609 765.26960938 371.44587891 766.09570312 372.50439453 C818.5242477 440.14581187 861.92866456 515.25582464 945.66601562 760.39111328 C945.82523499 761.1418512 945.98445435 761.89258911 946.14849854 762.66607666 C959.35433771 825.20075232 966.28017663 888.87494652 966.05712891 952.78051758 C966.0400742 957.70709331 966.05020758 962.63318105 966.06745148 967.55974007 C966.14753112 994.61851429 965.01694814 1021.4347363 962.66601562 1048.39111328 C962.56142029 1049.59103912 962.45682495 1050.79096497 962.34906006 1052.0272522 C961.79607655 1058.16032584 961.14639599 1064.27681715 960.41601562 1070.39111328 C960.31374664 1071.26915619 960.21147766 1072.1471991 960.10610962 1073.05184937 C949.94039512 1159.8654216 927.78111602 1245.26108218 865.66601562 1389.39111328 C865.24255859 1390.26525879 864.81910156 1391.1394043 864.3828125 1392.04003906 C858.15063606 1404.89698943 851.28648452 1417.32321755 844.18408203 1429.71777344 C842.42316857 1432.81877092 840.71472499 1435.94581233 839.01220703 1439.07910156 C819.8646716 1474.18695099 796.8785273 1507.60537748 772.66601562 1539.39111328 C772.23047363 1539.96313477 771.79493164 1540.53515625 771.34619141 1541.12451172 C768.4709045 1544.89411124 765.57327877 1548.64612598 762.66601562 1552.39111328 C762.2293457 1552.95540039 761.79267578 1553.5196875 761.34277344 1554.10107422 C755.09817063 1562.16196179 748.67356185 1570.03358061 742.04101562 1577.77783203 C740.65685757 1579.40185838 739.28475076 1581.03532495 737.91601562 1582.67236328 C732.55256335 1589.07881479 727.05974419 1595.32362291 721.36914062 1601.44189453 C719.34538002 1603.62800629 717.38100851 1605.8585614 715.42895508 1608.10888672 C711.94485719 1612.09582038 708.37945579 1615.99572286 704.75585938 1619.85595703 C703.79304298 1620.88184181 703.79304298 1620.88184181 702.81077576 1621.92845154 C696.10188529 1629.04119594 689.22602997 1635.98279239 682.30200195 1642.88549805 C680.20144458 1644.9806142 678.10639688 1647.08113638 676.01171875 1649.18212891 C674.64810752 1650.54508041 673.2841867 1651.90772225 671.91992188 1653.27001953 C671.30830704 1653.8836586 670.6966922 1654.49729767 670.06654358 1655.12953186 C666.33866746 1658.83754661 662.49354261 1662.35891642 658.50889587 1665.78977966 C655.48976327 1668.41319404 652.58336352 1671.15571284 649.66601562 1673.89111328 C644.74100305 1678.48259035 639.79252996 1683.02408256 634.66601562 1687.39111328 C633.68117188 1688.23158203 632.69632813 1689.07205078 631.68164062 1689.93798828 C620.22018714 1699.69132649 608.53847524 1709.14393914 596.66601562 1718.39111328 C595.63863281 1719.19291016 594.61125 1719.99470703 593.55273438 1720.82080078 C525.91131704 1773.24934535 450.80130427 1816.65376222 205.66601562 1900.39111328 C204.91527771 1900.55033264 204.16453979 1900.709552 203.39105225 1900.87359619 C140.20790361 1914.21637747 75.900727 1921.01777421 11.33203125 1920.78222656 C6.61066988 1920.7651364 1.88981647 1920.77533708 -2.83152771 1920.79254913 C-36.77460983 1920.89712028 -70.61700009 1919.16875977 -104.33398438 1915.14111328 C-105.21202728 1915.0388443 -106.09007019 1914.93657532 -106.99472046 1914.83120728 C-193.80829269 1904.66549278 -279.20395327 1882.50621367 -423.33398438 1820.39111328 C-424.20812988 1819.96765625 -425.08227539 1819.54419922 -425.98291016 1819.10791016 C-438.83986052 1812.87573372 -451.26608865 1806.01158217 -463.66064453 1798.90917969 C-466.76164202 1797.14826623 -469.88868342 1795.43982265 -473.02197266 1793.73730469 C-508.12982208 1774.58976925 -541.54824857 1751.60362496 -573.33398438 1727.39111328 C-573.90600586 1726.95557129 -574.47802734 1726.5200293 -575.06738281 1726.07128906 C-578.83698233 1723.19600216 -582.58899707 1720.29837642 -586.33398438 1717.39111328 C-586.89827148 1716.95444336 -587.46255859 1716.51777344 -588.04394531 1716.06787109 C-596.10483288 1709.82326829 -603.9764517 1703.39865951 -611.72070312 1696.76611328 C-613.34472948 1695.38195523 -614.97819605 1694.00984841 -616.61523438 1692.64111328 C-623.02168588 1687.27766101 -629.26649401 1681.78484184 -635.38476562 1676.09423828 C-637.57087739 1674.07047767 -639.8014325 1672.10610617 -642.05175781 1670.15405273 C-646.03869147 1666.66995485 -649.93859395 1663.10455345 -653.79882812 1659.48095703 C-654.82471291 1658.51814064 -654.82471291 1658.51814064 -655.87132263 1657.53587341 C-662.98406704 1650.82698294 -669.92566349 1643.95112763 -676.82836914 1637.02709961 C-678.92348529 1634.92654224 -681.02400747 1632.83149454 -683.125 1630.73681641 C-684.4879515 1629.37320518 -685.85059335 1628.00928435 -687.21289062 1626.64501953 C-687.82652969 1626.03340469 -688.44016876 1625.42178986 -689.07240295 1624.79164124 C-692.78041771 1621.06376512 -696.30178751 1617.21864026 -699.73265076 1613.23399353 C-702.35606514 1610.21486092 -705.09858393 1607.30846117 -707.83398438 1604.39111328 C-712.42546145 1599.4661007 -716.96695365 1594.51762761 -721.33398438 1589.39111328 C-722.17445313 1588.40626953 -723.01492188 1587.42142578 -723.88085938 1586.40673828 C-733.63419759 1574.9452848 -743.08681024 1563.2635729 -752.33398438 1551.39111328 C-753.53667969 1549.85003906 -753.53667969 1549.85003906 -754.76367188 1548.27783203 C-807.19221645 1480.63641469 -850.59663331 1405.52640192 -934.33398438 1160.39111328 C-934.49320374 1159.64037537 -934.6524231 1158.88963745 -934.81646729 1158.1161499 C-948.47049055 1093.45915197 -954.9945364 1027.84623325 -954.78081512 961.78980255 C-954.77129874 958.70595618 -954.76648317 955.62212686 -954.76226807 952.53826904 C-954.70827667 923.25280707 -954.16484557 894.22439018 -950.65686035 865.11657715 C-950.31669519 862.24517166 -949.99824314 859.37197432 -949.68457031 856.49755859 C-942.33201766 789.35457586 -928.04228582 723.63338228 -907.01245117 659.46228027 C-906.35075973 657.4423237 -905.69282618 655.42117118 -905.03515625 653.39990234 C-891.33077279 611.43351628 -873.70896012 571.02236656 -854.33398438 531.39111328 C-853.91052734 530.51696777 -853.48707031 529.64282227 -853.05078125 528.7421875 C-846.81860481 515.88523714 -839.95445327 503.45900901 -832.85205078 491.06445312 C-831.09113732 487.96345564 -829.38269374 484.83641423 -827.68017578 481.703125 C-808.53264035 446.59527558 -785.54649605 413.17684908 -761.33398438 381.39111328 C-760.89844238 380.8190918 -760.46290039 380.24707031 -760.01416016 379.65771484 C-757.13887325 375.88811533 -754.24124752 372.13610058 -751.33398438 368.39111328 C-750.89731445 367.82682617 -750.46064453 367.26253906 -750.01074219 366.68115234 C-743.76613938 358.62026478 -737.3415306 350.74864595 -730.70898438 343.00439453 C-729.32482632 341.38036818 -727.95271951 339.74690161 -726.58398438 338.10986328 C-721.2205321 331.70341177 -715.72771294 325.45860365 -710.03710938 319.34033203 C-708.01334877 317.15422027 -706.04897726 314.92366516 -704.09692383 312.67333984 C-700.61282594 308.68640618 -697.04742454 304.78650371 -693.42382812 300.92626953 C-692.78195053 300.24234634 -692.14007294 299.55842316 -691.47874451 298.85377502 C-684.76985404 291.74103062 -677.89399872 284.79943417 -670.9699707 277.89672852 C-668.86941333 275.80161236 -666.77436563 273.70109018 -664.6796875 271.60009766 C-663.31607627 270.23714616 -661.95215545 268.87450431 -660.58789062 267.51220703 C-659.97627579 266.89856796 -659.36466095 266.28492889 -658.73451233 265.6526947 C-655.00663621 261.94467995 -651.16151136 258.42331014 -647.17686462 254.9924469 C-644.15773202 252.36903252 -641.25133227 249.62651372 -638.33398438 246.89111328 C-633.4089718 242.29963621 -628.46049871 237.75814401 -623.33398438 233.39111328 C-622.34914063 232.55064453 -621.36429688 231.71017578 -620.34960938 230.84423828 C-608.88815589 221.09090007 -597.20644399 211.63828742 -585.33398438 202.39111328 C-584.30660156 201.58931641 -583.27921875 200.78751953 -582.22070312 199.96142578 C-514.57928579 147.53288121 -439.46927302 104.12846434 -194.33398438 20.39111328 C-193.58324646 20.23189392 -192.83250854 20.07267456 -192.059021 19.90863037 C-128.87587236 6.5658491 -64.56869575 -0.23554764 0 0 Z " fill="#1C1B22" transform="translate(954.333984375,-0.39111328125)"/>
<path d="M0 0 C3.81552636 3.33642094 7.39847079 6.88523414 10.91796875 10.53125 C13.5586276 13.21807421 16.36212471 15.64678929 19.22265625 18.09375 C21.99204537 20.54920027 24.55269499 23.19565089 27.1484375 25.83203125 C29.73480526 28.37806579 32.46769655 30.72490307 35.21875 33.08984375 C37.71803513 35.30638147 40.03516259 37.67631031 42.375 40.05859375 C44.21827949 41.86946393 46.13057174 43.55790104 48.08984375 45.2421875 C51.61869138 48.28148401 54.88239402 51.51485597 58.1484375 54.83203125 C60.73480526 57.37806579 63.46769655 59.72490307 66.21875 62.08984375 C68.71803513 64.30638147 71.03516259 66.67631031 73.375 69.05859375 C75.21827949 70.86946393 77.13057174 72.55790104 79.08984375 74.2421875 C81.89810722 76.66086529 84.55204968 79.16368433 87.15234375 81.8046875 C89.7324359 84.42509359 92.36337982 86.90792162 95.15234375 89.3046875 C98.66235886 92.32110673 101.90285651 95.53563882 105.1484375 98.83203125 C107.73480526 101.37806579 110.46769655 103.72490307 113.21875 106.08984375 C115.71665931 108.3051613 118.03259364 110.6736692 120.37109375 113.0546875 C122.23624049 114.88711237 124.17162121 116.59821885 126.15234375 118.3046875 C128.75881984 120.5502669 131.24168896 122.85020262 133.65234375 125.3046875 C136.02276732 127.71801467 138.45970683 129.97740603 141.02734375 132.1796875 C144.85529562 135.47556884 148.37998673 139.01484104 151.92578125 142.609375 C154.59867549 145.24475493 157.40602678 147.68235239 160.25390625 150.125 C162.74193401 152.32634143 165.04428452 154.68557265 167.37109375 157.0546875 C169.23624049 158.88711237 171.17162121 160.59821885 173.15234375 162.3046875 C175.75881984 164.5502669 178.24168896 166.85020262 180.65234375 169.3046875 C183.04287542 171.73858482 185.50280637 174.01824309 188.08984375 176.2421875 C190.89810722 178.66086529 193.55204968 181.16368433 196.15234375 183.8046875 C198.7324359 186.42509359 201.36337982 188.90792162 204.15234375 191.3046875 C207.66235886 194.32110673 210.90285651 197.53563882 214.1484375 200.83203125 C216.73480526 203.37806579 219.46769655 205.72490307 222.21875 208.08984375 C224.71803513 210.30638147 227.03516259 212.67631031 229.375 215.05859375 C231.21827949 216.86946393 233.13057174 218.55790104 235.08984375 220.2421875 C238.61869138 223.28148401 241.88239402 226.51485597 245.1484375 229.83203125 C247.73480526 232.37806579 250.46769655 234.72490307 253.21875 237.08984375 C255.71665931 239.3051613 258.03259364 241.6736692 260.37109375 244.0546875 C262.23624049 245.88711237 264.17162121 247.59821885 266.15234375 249.3046875 C268.75881984 251.5502669 271.24168896 253.85020262 273.65234375 256.3046875 C276.04287542 258.73858482 278.50280637 261.01824309 281.08984375 263.2421875 C283.89810722 265.66086529 286.55204968 268.16368433 289.15234375 270.8046875 C291.7324359 273.42509359 294.36337982 275.90792162 297.15234375 278.3046875 C300.66235886 281.32110673 303.90285651 284.53563882 307.1484375 287.83203125 C309.73480526 290.37806579 312.46769655 292.72490307 315.21875 295.08984375 C317.71665931 297.3051613 320.03259364 299.6736692 322.37109375 302.0546875 C324.23624049 303.88711237 326.17162121 305.59821885 328.15234375 307.3046875 C330.75881984 309.5502669 333.24168896 311.85020262 335.65234375 314.3046875 C338.02276732 316.71801467 340.45970683 318.97740603 343.02734375 321.1796875 C346.85529562 324.47556884 350.37998673 328.01484104 353.92578125 331.609375 C356.59867549 334.24475493 359.40602678 336.68235239 362.25390625 339.125 C364.74193401 341.32634143 367.04428452 343.68557265 369.37109375 346.0546875 C371.23624049 347.88711237 373.17162121 349.59821885 375.15234375 351.3046875 C377.75881984 353.5502669 380.24168896 355.85020262 382.65234375 358.3046875 C385.04287542 360.73858482 387.50280637 363.01824309 390.08984375 365.2421875 C392.89810722 367.66086529 395.55204968 370.16368433 398.15234375 372.8046875 C400.7324359 375.42509359 403.36337982 377.90792162 406.15234375 380.3046875 C409.66315515 383.32179105 412.90523454 386.53561355 416.1484375 389.8359375 C418.10290827 391.75611931 420.12548314 393.53336059 422.21484375 395.3046875 C437.2707654 408.36099456 448.79382613 429.0184127 450.3293457 449.12207031 C450.98432039 474.62172223 445.24433685 497.94561681 427.66796875 517.30859375 C425.31137447 519.63481955 422.81186957 521.77869032 420.2890625 523.921875 C417.97486118 525.96107982 415.81638698 528.10712208 413.65234375 530.3046875 C410.26992976 533.7335154 406.77163933 536.92517268 403.1171875 540.05859375 C400.33672543 542.52950139 397.76116157 545.1863569 395.15234375 547.8359375 C392.58929147 550.35894209 389.87888551 552.68031567 387.15234375 555.0234375 C384.36348842 557.50726178 381.77547392 560.17180187 379.15625 562.83203125 C376.56988224 565.37806579 373.83699095 567.72490307 371.0859375 570.08984375 C368.58802819 572.3051613 366.27209386 574.6736692 363.93359375 577.0546875 C361.4333819 579.51103599 358.77553859 581.76778118 356.12109375 584.0546875 C354.22211304 585.74267036 352.43228387 587.49238484 350.65234375 589.3046875 C348.26181208 591.73858482 345.80188113 594.01824309 343.21484375 596.2421875 C340.40658028 598.66086529 337.75263782 601.16368433 335.15234375 603.8046875 C331.95204853 607.05498733 328.61009799 610.05192995 325.15234375 613.0234375 C323.06897297 614.8789396 321.10953168 616.81691851 319.15234375 618.8046875 C315.95204853 622.05498733 312.61009799 625.05192995 309.15234375 628.0234375 C306.44387712 630.43566559 303.9208173 633.00876847 301.40234375 635.6171875 C299.45035641 637.51495297 297.45718056 639.30200202 295.40234375 641.0859375 C291.21720994 644.72182085 287.17520401 648.49097985 283.15234375 652.3046875 C281.65378704 653.72020159 280.15508571 655.13556259 278.65625 656.55078125 C277.52920654 657.61594971 277.52920654 657.61594971 276.37939453 658.70263672 C272.95740881 661.93255309 269.52410183 665.15033053 266.08984375 668.3671875 C265.43435547 668.98142578 264.77886719 669.59566406 264.10351562 670.22851562 C262.78114345 671.46767067 261.45871522 672.70676589 260.13623047 673.94580078 C257.47509965 676.43926006 254.8146728 678.93346972 252.15429688 681.42773438 C250.15502904 683.30216988 248.15563961 685.17647564 246.15625 687.05078125 C243.47613575 689.56334745 240.79649314 692.07641531 238.1171875 694.58984375 C231.0190702 701.24776773 223.91369787 707.89773587 216.79663086 714.53540039 C212.24177937 718.78464528 207.69539489 723.04283102 203.15234375 727.3046875 C197.37558729 732.72388844 191.58942352 738.13284258 185.796875 743.53515625 C181.24195939 747.784501 176.69547878 752.04275231 172.15234375 756.3046875 C166.37558729 761.72388844 160.58942352 767.13284258 154.796875 772.53515625 C150.24195939 776.784501 145.69547878 781.04275231 141.15234375 785.3046875 C135.37558729 790.72388844 129.58942352 796.13284258 123.796875 801.53515625 C119.24195934 805.78450105 114.69549578 810.04277037 110.15234375 814.3046875 C101.27651185 822.63054652 92.37929849 830.93339325 83.4765625 839.23046875 C76.85292563 845.40546134 70.24354186 851.59506938 63.65234375 857.8046875 C56.45326191 864.58699752 49.23076312 871.34364595 41.99511719 878.08691406 C39.50611421 880.40708165 37.01863392 882.72887817 34.53125 885.05078125 C32.65772486 886.79966438 30.783941 888.54827003 28.91015625 890.296875 C25.74718247 893.24887398 22.58591125 896.20268884 19.42553711 899.1574707 C18.16473596 900.33459682 16.90253754 901.51022819 15.63891602 902.68432617 C12.67096835 905.44252489 9.72037233 908.21359655 6.8125 911.03515625 C-11.45571073 928.62850093 -33.20938623 938.47527781 -58.91796875 938.0546875 C-79.15039783 936.76753495 -97.6168138 929.20287574 -112.84765625 915.8046875 C-113.60949219 915.13824219 -114.37132812 914.47179688 -115.15625 913.78515625 C-130.1972498 899.73472489 -140.06830424 878.32762377 -140.84765625 857.8046875 C-140.89921875 856.9075 -140.95078125 856.0103125 -141.00390625 855.0859375 C-141.783256 830.92609523 -131.82272097 809.46570195 -115.84765625 791.8046875 C-113.89137065 789.94806173 -111.88767155 788.20224475 -109.8125 786.48046875 C-107.70777441 784.6853847 -105.78442914 782.77921425 -103.84765625 780.8046875 C-100.64736103 777.55438767 -97.30541049 774.55744505 -93.84765625 771.5859375 C-91.05880092 769.10211322 -88.47078642 766.43757313 -85.8515625 763.77734375 C-83.26519474 761.23130921 -80.53230345 758.88447193 -77.78125 756.51953125 C-75.28334069 754.3042137 -72.96740636 751.9357058 -70.62890625 749.5546875 C-68.1286944 747.09833901 -65.47085109 744.84159382 -62.81640625 742.5546875 C-60.91742554 740.86670464 -59.12759637 739.11699016 -57.34765625 737.3046875 C-54.95712458 734.87079018 -52.49719363 732.59113191 -49.91015625 730.3671875 C-47.10189278 727.94850971 -44.44795032 725.44569067 -41.84765625 722.8046875 C-38.64736103 719.55438767 -35.30541049 716.55744505 -31.84765625 713.5859375 C-29.05880092 711.10211322 -26.47078642 708.43757313 -23.8515625 705.77734375 C-21.26519474 703.23130921 -18.53230345 700.88447193 -15.78125 698.51953125 C-13.89271028 696.84464451 -12.11609977 695.10521163 -10.34765625 693.3046875 C-7.95712458 690.87079018 -5.49719363 688.59113191 -2.91015625 686.3671875 C0.53655591 683.39863194 3.74345234 680.26389646 6.90234375 676.9921875 C8.85560298 675.09318547 10.85017976 673.30476896 12.90625 671.51953125 C17.06768758 667.90410812 21.08909469 664.15874707 25.08984375 660.3671875 C26.5872086 658.95309219 28.08460534 657.53903065 29.58203125 656.125 C30.33967773 655.40860352 31.09732422 654.69220703 31.87792969 653.95410156 C35.48535111 650.54494117 39.10003034 647.14350633 42.71484375 643.7421875 C43.41649658 643.08178467 44.11814941 642.42138184 44.84106445 641.7409668 C57.86476494 629.48521917 70.92820754 617.27227319 84.00683594 605.07519531 C93.73661097 596.00055505 103.44907321 586.90765905 113.15234375 577.8046875 C121.59567933 569.88370425 130.04407857 561.96834929 138.51025391 554.07177734 C143.04267255 549.84318147 147.56816181 545.60726122 152.08984375 541.3671875 C152.75153564 540.74674561 153.41322754 540.12630371 154.0949707 539.48706055 C157.48506988 536.3077362 160.87397848 533.12715023 164.26171875 529.9453125 C170.34988812 524.22929484 176.4440004 518.52120969 182.58984375 512.8671875 C189.04936012 506.92330449 195.43698224 500.90416569 201.82421875 494.8828125 C205.94779158 490.99550525 210.07989976 487.11739243 214.21484375 483.2421875 C214.8605835 482.63624756 215.50632324 482.03030762 216.17163086 481.40600586 C219.6529557 478.14050322 223.14199033 474.88367477 226.640625 471.63671875 C227.37466553 470.95359619 228.10870605 470.27047363 228.86499023 469.56665039 C230.27494971 468.25475291 231.68712048 466.9452268 233.10180664 465.63842773 C233.73465576 465.04876221 234.36750488 464.45909668 235.01953125 463.8515625 C235.57753418 463.33432617 236.13553711 462.81708984 236.71044922 462.28417969 C238.38076586 460.66082549 238.38076586 460.66082549 240.15234375 457.8046875 C239.36537109 457.10859375 239.36537109 457.10859375 238.5625 456.3984375 C230.68389601 449.37192878 223.0225096 442.12130647 215.34716797 434.87451172 C211.93482758 431.65651151 208.51278771 428.44890107 205.08984375 425.2421875 C204.43491943 424.62851318 203.77999512 424.01483887 203.10522461 423.38256836 C201.78372978 422.14432754 200.46219665 420.90612759 199.140625 419.66796875 C197.13354208 417.78706786 195.12720265 415.90537718 193.12109375 414.0234375 C184.14461395 405.60309973 175.15325338 397.19890074 166.15234375 388.8046875 C155.12868188 378.52406339 144.12507969 368.22231943 133.13183594 357.90917969 C125.36252696 350.62098902 117.58703241 343.33961816 109.79663086 336.07397461 C104.56685225 331.19508666 99.34904076 326.30352318 94.1328125 321.41015625 C89.64551046 317.20167686 85.15137375 313.00062495 80.65234375 308.8046875 C74.8032675 303.34965428 68.96593859 297.88223778 63.1328125 292.41015625 C58.6455104 288.2016768 54.15135389 284.00064631 49.65234375 279.8046875 C42.47926183 273.11427321 35.32231514 266.40675981 28.16845703 259.69580078 C24.83041708 256.56472092 21.49134302 253.43474426 18.15234375 250.3046875 C14.1401063 246.54352138 10.12809214 242.7821187 6.1171875 239.01953125 C-2.85818489 230.60070369 -11.84809269 222.1976454 -20.84765625 213.8046875 C-29.1976816 206.01748639 -37.53979877 198.22206946 -45.86694336 190.41040039 C-50.3543125 186.20182423 -54.84856198 182.00072476 -59.34765625 177.8046875 C-67.86987704 169.85591619 -76.36897522 161.88256081 -84.86816406 153.90917969 C-86.88202068 152.02003214 -88.89608129 150.13110226 -90.91015625 148.2421875 C-91.56685303 147.62601563 -92.2235498 147.00984375 -92.90014648 146.375 C-96.88971085 142.63352454 -100.88986175 138.90376943 -104.89770508 135.18188477 C-107.37052881 132.8805828 -109.83276069 130.56813169 -112.29394531 128.25439453 C-113.59847734 127.03718662 -114.92033178 125.83858071 -116.24609375 124.64453125 C-125.17619716 116.33212274 -131.39749789 105.0620051 -135.84765625 93.8046875 C-136.29044922 92.721875 -136.29044922 92.721875 -136.7421875 91.6171875 C-144.20629566 71.61484838 -141.72103194 48.49277399 -133.3125 29.30078125 C-129.74392838 21.61470682 -125.39716548 15.18425153 -119.84765625 8.8046875 C-119.06390625 7.7734375 -118.28015625 6.7421875 -117.47265625 5.6796875 C-86.88922754 -27.8164487 -33.72285691 -28.42327017 0 0 Z " fill="#6752E5" transform="translate(1469.84765625,465.1953125)"/>
<path d="M0 0 C9.50636866 8.27932379 16.88451836 16.27698962 22.875 27.50390625 C23.35582031 28.3959375 23.83664062 29.28796875 24.33203125 30.20703125 C34.13798445 49.99668907 35.15374972 72.98675752 28.8125 93.94140625 C21.05310328 115.52786749 6.48296434 129.28606279 -10.00976562 144.54589844 C-12.62958779 146.97098774 -15.23814261 149.40796751 -17.84619141 151.84570312 C-19.69041243 153.56912792 -21.53644873 155.29059 -23.3828125 157.01171875 C-27.28211874 160.64847307 -31.17314559 164.29401411 -35.0625 167.94140625 C-36.05515869 168.87218994 -36.05515869 168.87218994 -37.06787109 169.82177734 C-40.45789915 173.00100939 -43.84671857 176.18152227 -47.234375 179.36328125 C-48.5936623 180.63941634 -49.95303657 181.91545879 -51.3125 183.19140625 C-51.97362793 183.81200928 -52.63475586 184.4326123 -53.31591797 185.07202148 C-58.12134393 189.57718264 -62.96242437 194.04218114 -67.81396484 198.49755859 C-71.1378526 201.56099638 -74.3553696 204.70302389 -77.51953125 207.9296875 C-79.96147265 210.3240972 -82.56611463 212.52240501 -85.15625 214.75390625 C-87.05523071 216.44188911 -88.84505988 218.19160359 -90.625 220.00390625 C-93.01553167 222.43780357 -95.47546262 224.71746184 -98.0625 226.94140625 C-100.87076347 229.36008404 -103.52470593 231.86290308 -106.125 234.50390625 C-109.3465855 237.77592753 -112.71092145 240.7970668 -116.19140625 243.7890625 C-118.07994597 245.46394924 -119.85655648 247.20338212 -121.625 249.00390625 C-124.01553167 251.43780357 -126.47546262 253.71746184 -129.0625 255.94140625 C-131.87076347 258.36008404 -134.52470593 260.86290308 -137.125 263.50390625 C-140.3465855 266.77592753 -143.71092145 269.7970668 -147.19140625 272.7890625 C-149.07994597 274.46394924 -150.85655648 276.20338212 -152.625 278.00390625 C-155.01553167 280.43780357 -157.47546262 282.71746184 -160.0625 284.94140625 C-162.87076347 287.36008404 -165.52470593 289.86290308 -168.125 292.50390625 C-171.32529522 295.75420608 -174.66724576 298.7511487 -178.125 301.72265625 C-180.91385533 304.20648053 -183.50186983 306.87102062 -186.12109375 309.53125 C-188.70746151 312.07728454 -191.4403528 314.42412182 -194.19140625 316.7890625 C-196.07994597 318.46394924 -197.85655648 320.20338212 -199.625 322.00390625 C-202.01553167 324.43780357 -204.47546262 326.71746184 -207.0625 328.94140625 C-209.87076347 331.36008404 -212.52470593 333.86290308 -215.125 336.50390625 C-218.3465855 339.77592753 -221.71092145 342.7970668 -225.19140625 345.7890625 C-227.07994597 347.46394924 -228.85655648 349.20338212 -230.625 351.00390625 C-233.01553167 353.43780357 -235.47546262 355.71746184 -238.0625 357.94140625 C-240.87076347 360.36008404 -243.52470593 362.86290308 -246.125 365.50390625 C-249.3465855 368.77592753 -252.71092145 371.7970668 -256.19140625 374.7890625 C-258.07994597 376.46394924 -259.85655648 378.20338212 -261.625 380.00390625 C-264.01553167 382.43780357 -266.47546262 384.71746184 -269.0625 386.94140625 C-271.87076347 389.36008404 -274.52470593 391.86290308 -277.125 394.50390625 C-280.32529522 397.75420608 -283.66724576 400.7511487 -287.125 403.72265625 C-289.83346663 406.13488434 -292.35652645 408.70798722 -294.875 411.31640625 C-296.82698734 413.21417172 -298.82016319 415.00122077 -300.875 416.78515625 C-305.06013796 420.42104321 -309.102063 424.19027423 -313.125 428.00390625 C-314.61577442 429.41157589 -316.10666268 430.81912498 -317.59765625 432.2265625 C-318.34805176 432.93570801 -319.09844727 433.64485352 -319.87158203 434.37548828 C-323.42992219 437.73644272 -326.99433285 441.09088834 -330.5625 444.44140625 C-331.22258057 445.06168701 -331.88266113 445.68196777 -332.56274414 446.32104492 C-337.10885295 450.58184028 -341.71639466 454.76013696 -346.40234375 458.8671875 C-348.21806351 460.40637906 -348.21806351 460.40637906 -349.125 462.50390625 C-348.29742187 462.83841797 -348.29742187 462.83841797 -347.453125 463.1796875 C-344.3944324 464.91944722 -342.3176188 467.16155107 -339.875 469.69140625 C-336.06572006 473.59203279 -332.16667113 477.28911968 -328.01953125 480.828125 C-325.259772 483.26923164 -322.71289024 485.90681225 -320.12890625 488.53125 C-317.54253849 491.07728454 -314.8096472 493.42412182 -312.05859375 495.7890625 C-309.56068444 498.00438005 -307.24475011 500.37288795 -304.90625 502.75390625 C-303.04110326 504.58633112 -301.10572254 506.2974376 -299.125 508.00390625 C-296.51852391 510.24948565 -294.03565479 512.54942137 -291.625 515.00390625 C-289.23446833 517.43780357 -286.77453738 519.71746184 -284.1875 521.94140625 C-281.37923653 524.36008404 -278.72529407 526.86290308 -276.125 529.50390625 C-273.54490785 532.12431234 -270.91396393 534.60714037 -268.125 537.00390625 C-264.61498489 540.02032548 -261.37448724 543.23485757 -258.12890625 546.53125 C-255.54253849 549.07728454 -252.8096472 551.42412182 -250.05859375 553.7890625 C-247.56068444 556.00438005 -245.24475011 558.37288795 -242.90625 560.75390625 C-241.04110326 562.58633112 -239.10572254 564.2974376 -237.125 566.00390625 C-234.51852391 568.24948565 -232.03565479 570.54942137 -229.625 573.00390625 C-227.23446833 575.43780357 -224.77453738 577.71746184 -222.1875 579.94140625 C-219.37923653 582.36008404 -216.72529407 584.86290308 -214.125 587.50390625 C-211.54490785 590.12431234 -208.91396393 592.60714037 -206.125 595.00390625 C-202.61498489 598.02032548 -199.37448724 601.23485757 -196.12890625 604.53125 C-193.54253849 607.07728454 -190.8096472 609.42412182 -188.05859375 611.7890625 C-185.55930862 614.00560022 -183.24218116 616.37552906 -180.90234375 618.7578125 C-179.05906426 620.56868268 -177.14677201 622.25711979 -175.1875 623.94140625 C-171.65865237 626.98070276 -168.39494973 630.21407472 -165.12890625 633.53125 C-162.54253849 636.07728454 -159.8096472 638.42412182 -157.05859375 640.7890625 C-154.55930862 643.00560022 -152.24218116 645.37552906 -149.90234375 647.7578125 C-148.05906426 649.56868268 -146.14677201 651.25711979 -144.1875 652.94140625 C-141.37923653 655.36008404 -138.72529407 657.86290308 -136.125 660.50390625 C-133.54490785 663.12431234 -130.91396393 665.60714037 -128.125 668.00390625 C-124.61498489 671.02032548 -121.37448724 674.23485757 -118.12890625 677.53125 C-115.54253849 680.07728454 -112.8096472 682.42412182 -110.05859375 684.7890625 C-107.55930862 687.00560022 -105.24218116 689.37552906 -102.90234375 691.7578125 C-101.05906426 693.56868268 -99.14677201 695.25711979 -97.1875 696.94140625 C-94.37923653 699.36008404 -91.72529407 701.86290308 -89.125 704.50390625 C-86.54490785 707.12431234 -83.91396393 709.60714037 -81.125 712.00390625 C-77.61498489 715.02032548 -74.37448724 718.23485757 -71.12890625 721.53125 C-68.54253849 724.07728454 -65.8096472 726.42412182 -63.05859375 728.7890625 C-60.56068444 731.00438005 -58.24475011 733.37288795 -55.90625 735.75390625 C-54.04110326 737.58633112 -52.10572254 739.2974376 -50.125 741.00390625 C-47.51852391 743.24948565 -45.03565479 745.54942137 -42.625 748.00390625 C-40.23446833 750.43780357 -37.77453738 752.71746184 -35.1875 754.94140625 C-31.65865237 757.98070276 -28.39494973 761.21407472 -25.12890625 764.53125 C-22.54253849 767.07728454 -19.8096472 769.42412182 -17.05859375 771.7890625 C-15.17005403 773.46394924 -13.39344352 775.20338212 -11.625 777.00390625 C-9.37488173 779.2942052 -7.07711288 781.43229364 -4.625 783.50390625 C6.28973 793.01165934 16.16585805 802.53623636 22.875 815.50390625 C23.35195313 816.39207031 23.82890625 817.28023437 24.3203125 818.1953125 C33.18652229 836.0073687 35.99821689 860.12927127 29.875 879.25390625 C28.94578317 881.69866265 27.9441727 884.11703644 26.875 886.50390625 C26.58028809 887.1784082 26.28557617 887.85291016 25.98193359 888.54785156 C22.03598153 897.45753637 17.49968272 905.2781675 10.875 912.50390625 C10.27300781 913.18582031 9.67101562 913.86773438 9.05078125 914.5703125 C-6.09763328 930.79848824 -28.11417437 940.02783968 -50.1159668 940.8425293 C-76.29958156 941.28885793 -97.80257062 930.0101698 -116.359375 912.19287109 C-118.84418595 909.81594601 -121.35912874 907.47184671 -123.87231445 905.125 C-130.87980692 898.57795352 -137.85312081 891.99432057 -144.83447266 885.41943359 C-151.91051185 878.75858258 -159.0154188 872.12891536 -166.125 865.50390625 C-174.69886279 857.51441749 -183.2541093 849.50597107 -191.78417969 841.46972656 C-198.26469073 835.36677829 -204.77000324 829.29075331 -211.28222656 823.22167969 C-215.02498506 819.732802 -218.76462346 816.24057983 -222.50488281 812.74902344 C-225.60382507 809.85635503 -228.703447 806.96442322 -231.8046875 804.07421875 C-239.15050444 797.2264233 -246.4745744 790.35616158 -253.78417969 783.46972656 C-260.26619638 777.36536037 -266.77294319 771.28783217 -273.28662109 765.21728516 C-284.92632874 754.3690158 -296.54134164 743.49466549 -308.14550781 732.60839844 C-315.91481679 725.32020777 -323.69031134 718.03883691 -331.48071289 710.77319336 C-336.7104915 705.89430541 -341.92830299 701.00274193 -347.14453125 696.109375 C-351.63183329 691.90089561 -356.12597 687.6998437 -360.625 683.50390625 C-366.47407625 678.04887303 -372.31140516 672.58145653 -378.14453125 667.109375 C-382.63183335 662.90089555 -387.12598986 658.69986506 -391.625 654.50390625 C-396.77730734 649.69829116 -401.92305178 644.88577206 -407.0625 640.06640625 C-408.05503784 639.13574341 -408.05503784 639.13574341 -409.06762695 638.1862793 C-412.45772613 635.00695495 -415.84663473 631.82636898 -419.234375 628.64453125 C-420.5936623 627.36839616 -421.95303657 626.09235371 -423.3125 624.81640625 C-423.97362793 624.19580322 -424.63475586 623.5752002 -425.31591797 622.93579102 C-430.12134393 618.43062986 -434.96242437 613.96563136 -439.81396484 609.51025391 C-443.1378526 606.44681612 -446.3553696 603.30478861 -449.51953125 600.078125 C-451.96147265 597.6837153 -454.56611463 595.48540749 -457.15625 593.25390625 C-459.66410326 591.02470335 -461.99356808 588.64681875 -464.34375 586.25390625 C-466.20889674 584.42148138 -468.14427746 582.7103749 -470.125 581.00390625 C-472.73147609 578.75832685 -475.21434521 576.45839113 -477.625 574.00390625 C-480.01553167 571.57000893 -482.47546262 569.29035066 -485.0625 567.06640625 C-488.59134763 564.02710974 -491.85505027 560.79373778 -495.12109375 557.4765625 C-497.70746151 554.93052796 -500.4403528 552.58369068 -503.19140625 550.21875 C-505.68931556 548.00343245 -508.00524989 545.63492455 -510.34375 543.25390625 C-512.20889674 541.42148138 -514.14427746 539.7103749 -516.125 538.00390625 C-519.36121433 535.21578313 -522.37350867 532.28647298 -525.35546875 529.23046875 C-527.13771709 527.49149797 -529.00673043 525.94983299 -530.9375 524.37890625 C-546.35987429 510.95517621 -556.33489156 490.74001258 -558.125 470.50390625 C-559.76676236 445.33106776 -553.76983713 423.95723757 -537.125 404.50390625 C-531.44904609 398.32713288 -525.37103384 392.58110861 -518.984375 387.14453125 C-516.23417227 384.71788178 -513.70111823 382.08904394 -511.12890625 379.4765625 C-508.54253849 376.93052796 -505.8096472 374.58369068 -503.05859375 372.21875 C-501.17005403 370.54386326 -499.39344352 368.80443038 -497.625 367.00390625 C-495.23446833 364.57000893 -492.77453738 362.29035066 -490.1875 360.06640625 C-487.37923653 357.64772846 -484.72529407 355.14490942 -482.125 352.50390625 C-478.9034145 349.23188497 -475.53907855 346.2107457 -472.05859375 343.21875 C-470.17005403 341.54386326 -468.39344352 339.80443038 -466.625 338.00390625 C-464.23446833 335.57000893 -461.77453738 333.29035066 -459.1875 331.06640625 C-456.37923653 328.64772846 -453.72529407 326.14490942 -451.125 323.50390625 C-447.9034145 320.23188497 -444.53907855 317.2107457 -441.05859375 314.21875 C-438.56068444 312.00343245 -436.24475011 309.63492455 -433.90625 307.25390625 C-431.40603815 304.79755776 -428.74819484 302.54081257 -426.09375 300.25390625 C-424.19476929 298.56592339 -422.40494012 296.81620891 -420.625 295.00390625 C-418.23446833 292.57000893 -415.77453738 290.29035066 -413.1875 288.06640625 C-410.37923653 285.64772846 -407.72529407 283.14490942 -405.125 280.50390625 C-401.9034145 277.23188497 -398.53907855 274.2107457 -395.05859375 271.21875 C-393.17005403 269.54386326 -391.39344352 267.80443038 -389.625 266.00390625 C-387.25457643 263.59057908 -384.81763692 261.33118772 -382.25 259.12890625 C-378.50266297 255.9024346 -375.03598784 252.4583091 -371.59375 248.91015625 C-368.89890469 246.28353487 -366.08533452 243.83503263 -363.24414062 241.36914062 C-359.79227305 238.33086087 -356.46188774 235.16730579 -353.125 232.00390625 C-351.62644329 230.58839216 -350.12774196 229.17303116 -348.62890625 227.7578125 C-347.87754395 227.0477002 -347.12618164 226.33758789 -346.35205078 225.60595703 C-342.93006512 222.37604073 -339.49677145 219.15824886 -336.0625 215.94140625 C-334.73957822 214.70182838 -333.41666155 213.46224504 -332.09375 212.22265625 C-331.44019531 211.61035156 -330.78664063 210.99804688 -330.11328125 210.3671875 C-328.10619833 208.48628661 -326.0998589 206.60459593 -324.09375 204.72265625 C-316.99447604 198.06327438 -309.88770034 191.41211342 -302.76928711 184.77319336 C-298.21443562 180.52394847 -293.66805114 176.26576273 -289.125 172.00390625 C-283.96505359 167.16333757 -278.79903122 162.32941702 -273.625 157.50390625 C-265.77810578 150.18501963 -257.95068841 142.84545347 -250.125 135.50390625 C-241.68242005 127.58363187 -233.23504167 119.66869843 -224.76928711 111.77319336 C-220.21443562 107.52394847 -215.66805114 103.26576273 -211.125 99.00390625 C-205.34824354 93.58470531 -199.56207977 88.17575117 -193.76953125 82.7734375 C-189.21461559 78.5240927 -184.66815203 74.26582338 -180.125 70.00390625 C-171.85424359 62.24563045 -163.56373914 54.50864929 -155.27050781 46.77441406 C-148.23539578 40.21299711 -141.20564555 33.64597114 -134.1875 27.06640625 C-133.19834595 26.14021484 -133.19834595 26.14021484 -132.18920898 25.1953125 C-128.75244039 21.97566903 -125.32461568 18.7472089 -121.91015625 15.50390625 C-88.14232527 -16.52233998 -40.20580624 -32.28482539 0 0 Z " fill="#6752E5" transform="translate(558.125,462.49609375)"/>
<path d="M0 0 C18.99060603 15.74079671 28.30627039 37.86820638 30.6953125 61.96508789 C31.54503693 83.42748245 22.3724485 103.53934581 14.88818359 123.17163086 C11.92728768 130.94689158 9.00648207 138.73710444 6.0859375 146.52758789 C5.8067919 147.27214359 5.52764629 148.0166993 5.24004173 148.78381729 C4.08732432 151.85857041 2.93469808 154.93335764 1.78234005 158.00824547 C0.00791478 162.74274558 -1.76830804 167.47656627 -3.54607105 172.20981407 C-10.55576965 190.87317797 -17.52000003 209.55137033 -24.37109375 228.27368164 C-29.46361351 242.19002878 -34.58946194 256.0917842 -39.80859375 269.96118164 C-46.06493791 286.5892639 -52.25863289 303.24022971 -58.43359375 319.89868164 C-58.92039579 321.21183424 -59.40720204 322.52498527 -59.89401245 323.83813477 C-61.6421813 328.55381248 -63.39032403 333.26949989 -65.13828087 337.9852562 C-71.37574339 354.81309294 -77.62234446 371.63753325 -83.87109375 388.46118164 C-84.14557217 389.20019085 -84.42005058 389.93920006 -84.70284653 390.70060349 C-93.92541077 415.53133366 -103.16522694 440.35559442 -112.41699219 465.17546082 C-116.1558543 475.20665313 -119.88872033 485.24007363 -123.62109375 495.27368164 C-129.38776543 510.77523299 -135.1592186 526.27499823 -140.93359375 541.77368164 C-141.33311249 542.84605072 -141.73263123 543.9184198 -142.14425659 545.02328491 C-146.10116276 555.64418206 -150.05845258 566.26493582 -154.01760864 576.88499451 C-155.90653299 581.951959 -157.79510886 587.01905335 -159.68359375 592.08618164 C-160.25657196 593.6234642 -160.25657196 593.6234642 -160.84112549 595.19180298 C-165.82193173 608.55658196 -170.79260348 621.92509037 -175.75390625 635.29711914 C-177.66167435 640.43863313 -179.5695309 645.58011431 -181.47748947 650.72155762 C-182.03149605 652.2144707 -182.5854842 653.70739062 -183.13945389 655.20031738 C-191.41934348 677.51350289 -199.74948185 699.80725965 -208.12109375 722.08618164 C-215.42871452 741.53359931 -222.67637325 761.00126524 -229.8164978 780.51095581 C-236.12521428 797.74740875 -242.51385943 814.95335295 -248.93359375 832.14868164 C-249.17084671 832.78420078 -249.40809967 833.41971992 -249.65254211 834.07449722 C-251.73551179 839.65393101 -253.81885425 845.23322555 -255.90261841 850.81236267 C-259.44411942 860.29563987 -262.97453277 869.78298411 -266.49609375 879.27368164 C-267.49735172 881.97161468 -268.4986636 884.66952771 -269.5 887.36743164 C-269.74726837 888.03368561 -269.99453674 888.69993958 -270.2492981 889.38638306 C-273.63872814 898.51746612 -277.03648852 907.64545195 -280.43359375 916.77368164 C-280.77045197 917.67884521 -281.10731018 918.58400879 -281.45437622 919.51660156 C-282.82208814 923.19170224 -284.18982079 926.8667952 -285.55760193 930.54187012 C-287.88135391 936.78561959 -290.20452436 943.02958517 -292.52734375 949.27368164 C-298.0419441 964.09746475 -303.55806674 978.92067996 -309.078125 993.74243164 C-309.45802078 994.76263397 -309.83791656 995.7828363 -310.22932434 996.83395386 C-312.18612179 1002.08821135 -314.14449296 1007.34187396 -316.10571289 1012.59448242 C-320.08592967 1023.25839829 -324.05081604 1033.92757443 -327.97860718 1044.61090088 C-329.7100821 1049.31969643 -331.44818003 1054.02603978 -333.18776131 1058.73184586 C-334.38954265 1061.98421452 -335.58776117 1065.23779901 -336.77740479 1068.49462891 C-348.91664136 1101.6834562 -348.91664136 1101.6834562 -360.62109375 1114.77368164 C-361.72904297 1116.0227832 -361.72904297 1116.0227832 -362.859375 1117.29711914 C-377.16004319 1132.51059593 -397.62636124 1142.22851771 -418.5546875 1143.01196289 C-443.20184416 1143.5083044 -464.95821818 1136.66911824 -483.34106445 1119.57275391 C-499.02428314 1104.33498167 -508.52770747 1083.81539071 -509.08666992 1061.91894531 C-509.10370972 1060.39297729 -509.10370972 1060.39297729 -509.12109375 1058.83618164 C-509.13954346 1057.89685791 -509.15799316 1056.95753418 -509.17700195 1055.98974609 C-509.05273005 1041.5336016 -504.19328081 1027.67839442 -499.10546875 1014.31274414 C-498.57107955 1012.88548801 -498.03762714 1011.45788084 -497.5050354 1010.029953 C-496.09580793 1006.2590475 -494.67433049 1002.49287766 -493.25029755 998.72754288 C-491.76414394 994.79097487 -490.29003838 990.84990108 -488.81494141 986.90917969 C-486.48063972 980.67659773 -484.14065685 974.44618445 -481.79589844 968.2175293 C-478.1485903 958.52694675 -474.53734184 948.82310671 -470.93518066 939.11566162 C-469.38278816 934.93421079 -467.82604245 930.75438192 -466.26953125 926.57446289 C-465.66632134 924.95419032 -465.06313122 923.33391038 -464.45996094 921.71362305 C-464.15956909 920.90669006 -463.85917725 920.09975708 -463.54968262 919.26837158 C-461.91947875 914.88876579 -460.28980754 910.50896182 -458.66015625 906.12915039 C-458.32814209 905.23683716 -457.99612793 904.34452393 -457.65405273 903.4251709 C-456.64305652 900.70801149 -455.63207269 897.99084747 -454.62109375 895.27368164 C-447.19595786 875.31745435 -447.19595786 875.31745435 -443.87770081 866.40402222 C-437.41207624 849.03612481 -430.95149436 831.66636418 -424.5 814.29321289 C-424.23037256 813.56713837 -423.96074512 812.84106384 -423.68294716 812.09298706 C-422.29128738 808.34538482 -420.89965503 804.59777239 -419.50802612 800.85015869 C-411.24268403 778.59196783 -402.97474425 756.33477558 -394.68359375 734.08618164 C-394.30207153 733.0623941 -393.92054932 732.03860657 -393.52746582 730.98379517 C-390.52103134 722.91673115 -387.51365895 714.85001687 -384.50622559 706.7833252 C-381.85655571 699.67611514 -379.20729587 692.56875241 -376.55859375 685.46118164 C-376.17736359 684.43819977 -375.79613342 683.4152179 -375.40335083 682.36123657 C-367.84644872 662.08095669 -360.31163419 641.79249082 -352.77815628 621.50350189 C-343.48132723 596.46557011 -334.16727494 571.43412508 -324.83872986 546.4079895 C-319.3855487 531.77741364 -313.94277369 517.14296391 -308.49893188 502.50891113 C-306.32817721 496.67370623 -304.15651296 490.83884049 -301.984375 485.00415039 C-295.85178763 468.52991984 -289.72404765 452.05390143 -283.60546875 435.57446289 C-283.06737357 434.12521836 -282.52927746 432.67597418 -281.99118042 431.22673035 C-281.72134401 430.49998391 -281.45150761 429.77323748 -281.17349434 429.02446842 C-279.7810415 425.27420096 -278.38857802 421.52393744 -276.99609375 417.77368164 C-276.71665169 417.02107937 -276.43720963 416.2684771 -276.14929962 415.4930687 C-267.88028291 393.22315814 -259.59418221 370.95973151 -251.28875732 348.70336914 C-243.71297472 328.40083849 -236.16272754 308.08891622 -228.62109375 287.77368164 C-220.63737391 266.26758018 -212.64147737 244.76614332 -204.62109375 223.27368164 C-196.25887084 200.86500267 -187.92307553 178.4466173 -179.59836197 156.023983 C-167.84018415 124.35332272 -167.84018415 124.35332272 -162.20703125 109.23071289 C-161.78915344 108.10888611 -161.37127563 106.98705933 -160.94073486 105.83123779 C-158.95964266 100.51403204 -156.97707072 95.19738357 -154.9921875 89.8815918 C-151.58446096 80.75217262 -148.18991741 71.61870135 -144.84765625 62.46508789 C-130.1124888 22.15053874 -130.1124888 22.15053874 -118.62109375 8.77368164 C-117.94691406 7.98735352 -117.27273438 7.20102539 -116.578125 6.39086914 C-85.86269291 -26.6872885 -34.37625084 -27.33015485 0 0 Z " fill="#6752E5" transform="translate(1195.62109375,398.226318359375)"/>
</svg>
