<?xml version="1.0" encoding="UTF-8"?>
<!DOCTYPE svg PUBLIC "-//W3C//DTD SVG 1.1//EN" "http://www.w3.org/Graphics/SVG/1.1/DTD/svg11.dtd">
<svg xmlns="http://www.w3.org/2000/svg" version="1.1" width="2000px" height="2000px" style="shape-rendering:geometricPrecision; text-rendering:geometricPrecision; image-rendering:optimizeQuality; fill-rule:evenodd; clip-rule:evenodd" xmlns:xlink="http://www.w3.org/1999/xlink">
<g><path style="opacity:1" fill="#d0c6fe" d="M 938.5,-0.5 C 980.167,-0.5 1021.83,-0.5 1063.5,-0.5C 1155.51,5.53671 1244.84,24.7034 1331.5,57C 1378.87,73.8494 1425.2,93.1827 1470.5,115C 1614.37,192.522 1732.87,298.689 1826,433.5C 1851.1,473.702 1873.1,515.702 1892,559.5C 1924.06,635.292 1953.06,712.292 1979,790.5C 1989.36,839.158 1996.19,888.158 1999.5,937.5C 1999.5,939.5 1999.5,941.5 1999.5,943.5C 1994.34,924.152 1984.34,907.652 1969.5,894C 1823.22,757.056 1676.89,620.056 1530.5,483C 1502.84,462.112 1472.5,457.112 1439.5,468C 1408.29,481.888 1389.79,505.721 1384,539.5C 1380.74,568.709 1389.24,593.876 1409.5,615C 1532.67,730.167 1655.83,845.333 1779,960.5C 1779.12,962.282 1778.62,963.948 1777.5,965.5C 1775.25,966.08 1773.58,967.413 1772.5,969.5C 1769.17,972.167 1766.17,975.167 1763.5,978.5C 1760.91,979.419 1758.91,981.086 1757.5,983.5C 1753.83,986.5 1750.5,989.833 1747.5,993.5C 1744.91,994.419 1742.91,996.086 1741.5,998.5C 1737.5,1001.83 1733.83,1005.5 1730.5,1009.5C 1728.25,1010.08 1726.58,1011.41 1725.5,1013.5C 1722.17,1016.17 1719.17,1019.17 1716.5,1022.5C 1714.25,1023.08 1712.58,1024.41 1711.5,1026.5C 1707.83,1029.5 1704.5,1032.83 1701.5,1036.5C 1699.25,1037.08 1697.58,1038.41 1696.5,1040.5C 1692.5,1043.83 1688.83,1047.5 1685.5,1051.5C 1683.25,1052.08 1681.58,1053.41 1680.5,1055.5C 1676.5,1058.83 1672.83,1062.5 1669.5,1066.5C 1667.25,1067.08 1665.58,1068.41 1664.5,1070.5C 1660.83,1073.5 1657.5,1076.83 1654.5,1080.5C 1652.25,1081.08 1650.58,1082.41 1649.5,1084.5C 1645.5,1087.83 1641.83,1091.5 1638.5,1095.5C 1636.25,1096.08 1634.58,1097.41 1633.5,1099.5C 1629.5,1102.83 1625.83,1106.5 1622.5,1110.5C 1620.25,1111.08 1618.58,1112.41 1617.5,1114.5C 1614.17,1117.17 1611.17,1120.17 1608.5,1123.5C 1605.91,1124.42 1603.91,1126.09 1602.5,1128.5C 1598.83,1131.5 1595.5,1134.83 1592.5,1138.5C 1590.25,1139.08 1588.58,1140.41 1587.5,1142.5C 1583.17,1146.17 1579.17,1150.17 1575.5,1154.5C 1573.25,1155.08 1571.58,1156.41 1570.5,1158.5C 1566.17,1162.17 1562.17,1166.17 1558.5,1170.5C 1555.91,1171.42 1553.91,1173.09 1552.5,1175.5C 1502.9,1220.93 1453.73,1266.93 1405,1313.5C 1381.33,1343.54 1376.99,1376.21 1392,1411.5C 1407.32,1439.43 1430.82,1455.93 1462.5,1461C 1490.61,1463.41 1514.94,1455.08 1535.5,1436C 1683.33,1297.5 1831.17,1159 1979,1020.5C 1989.81,1006.88 1996.65,991.546 1999.5,974.5C 1999.5,1003.5 1999.5,1032.5 1999.5,1061.5C 1993.72,1154.21 1974.56,1244.21 1942,1331.5C 1925.15,1378.87 1905.82,1425.2 1884,1470.5C 1811.04,1606.15 1712.21,1719.65 1587.5,1811C 1532.41,1848.22 1473.74,1879.22 1411.5,1904C 1344.6,1930.97 1276.94,1955.97 1208.5,1979C 1159.52,1989.45 1110.19,1996.28 1060.5,1999.5C 1018.83,1999.5 977.167,1999.5 935.5,1999.5C 843.493,1993.46 754.16,1974.3 667.5,1942C 620.134,1925.15 573.801,1905.82 528.5,1884C 392.847,1811.04 279.347,1712.21 188,1587.5C 150.782,1532.41 119.782,1473.74 95,1411.5C 68.0332,1344.6 43.0332,1276.94 20,1208.5C 9.46371,1159.2 2.63037,1109.53 -0.5,1059.5C -0.5,1032.5 -0.5,1005.5 -0.5,978.5C 3.57791,998.483 13.2446,1015.32 28.5,1029C 175.801,1165.97 322.801,1303.3 469.5,1441C 506.953,1467.96 544.62,1468.29 582.5,1442C 618.55,1408.74 625.383,1370.24 603,1326.5C 597.254,1318.08 590.754,1310.25 583.5,1303C 461.734,1189.23 340.067,1075.56 218.5,962C 336.775,850.73 455.441,739.73 574.5,629C 588.665,616.514 600.165,602.014 609,585.5C 623.141,543.927 613.641,508.76 580.5,480C 548.476,458.111 515.476,456.777 481.5,476C 467.521,484.143 455.188,494.31 444.5,506.5C 442.251,507.08 440.585,508.413 439.5,510.5C 435.833,513.5 432.5,516.833 429.5,520.5C 426.911,521.419 424.911,523.086 423.5,525.5C 419.833,528.5 416.5,531.833 413.5,535.5C 411.251,536.08 409.585,537.413 408.5,539.5C 404.833,542.5 401.5,545.833 398.5,549.5C 396.251,550.08 394.585,551.413 393.5,553.5C 384.2,561.133 375.533,569.466 367.5,578.5C 365.251,579.08 363.585,580.413 362.5,582.5C 358.5,585.833 354.833,589.5 351.5,593.5C 349.251,594.08 347.585,595.413 346.5,597.5C 342.833,600.5 339.5,603.833 336.5,607.5C 334.251,608.08 332.585,609.413 331.5,611.5C 327.5,614.833 323.833,618.5 320.5,622.5C 318.251,623.08 316.585,624.413 315.5,626.5C 311.5,629.833 307.833,633.5 304.5,637.5C 302.251,638.08 300.585,639.413 299.5,641.5C 295.833,644.5 292.5,647.833 289.5,651.5C 287.251,652.08 285.585,653.413 284.5,655.5C 280.5,658.833 276.833,662.5 273.5,666.5C 271.251,667.08 269.585,668.413 268.5,670.5C 264.833,673.5 261.5,676.833 258.5,680.5C 256.251,681.08 254.585,682.413 253.5,684.5C 249.5,687.833 245.833,691.5 242.5,695.5C 240.251,696.08 238.585,697.413 237.5,699.5C 233.833,702.5 230.5,705.833 227.5,709.5C 224.911,710.419 222.911,712.086 221.5,714.5C 217.167,718.167 213.167,722.167 209.5,726.5C 207.251,727.08 205.585,728.413 204.5,730.5C 141.901,788.262 79.7345,846.595 18,905.5C 8.82677,917.87 2.6601,931.537 -0.5,946.5C -0.5,941.5 -0.5,936.5 -0.5,931.5C 21.6138,669.062 127.28,447.228 316.5,266C 356.302,228.849 398.968,195.516 444.5,166C 490.375,138.896 538.041,115.23 587.5,95C 654.396,68.0332 722.063,43.0332 790.5,20C 839.481,9.54968 888.814,2.71635 938.5,-0.5 Z"/></g>
<g><path style="opacity:1" fill="#6651e4" d="M 1176.5,393.5 C 1210.63,391.255 1238.47,403.255 1260,429.5C 1280.03,459.645 1282.7,491.311 1268,524.5C 1139.8,868.089 1011.8,1211.76 884,1555.5C 862.687,1593.07 830.521,1609.24 787.5,1604C 747.574,1595.07 723.407,1570.57 715,1530.5C 712.675,1511.12 715.342,1492.45 723,1474.5C 850.727,1132.65 978.06,790.655 1105,448.5C 1118.85,417.14 1142.69,398.807 1176.5,393.5 Z"/></g>
<g><path style="opacity:1" fill="#6651e4" d="M -0.5,978.5 C -0.5,967.833 -0.5,957.167 -0.5,946.5C 2.6601,931.537 8.82677,917.87 18,905.5C 79.7345,846.595 141.901,788.262 204.5,730.5C 206.749,729.92 208.415,728.587 209.5,726.5C 213.167,722.167 217.167,718.167 221.5,714.5C 224.089,713.581 226.089,711.914 227.5,709.5C 230.5,705.833 233.833,702.5 237.5,699.5C 239.749,698.92 241.415,697.587 242.5,695.5C 245.833,691.5 249.5,687.833 253.5,684.5C 255.749,683.92 257.415,682.587 258.5,680.5C 261.5,676.833 264.833,673.5 268.5,670.5C 270.749,669.92 272.415,668.587 273.5,666.5C 276.833,662.5 280.5,658.833 284.5,655.5C 286.749,654.92 288.415,653.587 289.5,651.5C 292.5,647.833 295.833,644.5 299.5,641.5C 301.749,640.92 303.415,639.587 304.5,637.5C 307.833,633.5 311.5,629.833 315.5,626.5C 317.749,625.92 319.415,624.587 320.5,622.5C 323.833,618.5 327.5,614.833 331.5,611.5C 333.749,610.92 335.415,609.587 336.5,607.5C 339.5,603.833 342.833,600.5 346.5,597.5C 348.749,596.92 350.415,595.587 351.5,593.5C 354.833,589.5 358.5,585.833 362.5,582.5C 364.749,581.92 366.415,580.587 367.5,578.5C 375.533,569.466 384.2,561.133 393.5,553.5C 395.749,552.92 397.415,551.587 398.5,549.5C 401.5,545.833 404.833,542.5 408.5,539.5C 410.749,538.92 412.415,537.587 413.5,535.5C 416.5,531.833 419.833,528.5 423.5,525.5C 426.089,524.581 428.089,522.914 429.5,520.5C 432.5,516.833 435.833,513.5 439.5,510.5C 441.749,509.92 443.415,508.587 444.5,506.5C 455.188,494.31 467.521,484.143 481.5,476C 515.476,456.777 548.476,458.111 580.5,480C 613.641,508.76 623.141,543.927 609,585.5C 600.165,602.014 588.665,616.514 574.5,629C 455.441,739.73 336.775,850.73 218.5,962C 340.067,1075.56 461.734,1189.23 583.5,1303C 590.754,1310.25 597.254,1318.08 603,1326.5C 625.383,1370.24 618.55,1408.74 582.5,1442C 544.62,1468.29 506.953,1467.96 469.5,1441C 322.801,1303.3 175.801,1165.97 28.5,1029C 13.2446,1015.32 3.57791,998.483 -0.5,978.5 Z"/></g>
<g><path style="opacity:1" fill="#6651e4" d="M 1999.5,943.5 C 1999.5,953.833 1999.5,964.167 1999.5,974.5C 1996.65,991.546 1989.81,1006.88 1979,1020.5C 1831.17,1159 1683.33,1297.5 1535.5,1436C 1514.94,1455.08 1490.61,1463.41 1462.5,1461C 1430.82,1455.93 1407.32,1439.43 1392,1411.5C 1376.99,1376.21 1381.33,1343.54 1405,1313.5C 1453.73,1266.93 1502.9,1220.93 1552.5,1175.5C 1555.09,1174.58 1557.09,1172.91 1558.5,1170.5C 1562.17,1166.17 1566.17,1162.17 1570.5,1158.5C 1572.75,1157.92 1574.42,1156.59 1575.5,1154.5C 1579.17,1150.17 1583.17,1146.17 1587.5,1142.5C 1589.75,1141.92 1591.42,1140.59 1592.5,1138.5C 1595.5,1134.83 1598.83,1131.5 1602.5,1128.5C 1605.09,1127.58 1607.09,1125.91 1608.5,1123.5C 1611.17,1120.17 1614.17,1117.17 1617.5,1114.5C 1619.75,1113.92 1621.42,1112.59 1622.5,1110.5C 1625.83,1106.5 1629.5,1102.83 1633.5,1099.5C 1635.75,1098.92 1637.42,1097.59 1638.5,1095.5C 1641.83,1091.5 1645.5,1087.83 1649.5,1084.5C 1651.75,1083.92 1653.42,1082.59 1654.5,1080.5C 1657.5,1076.83 1660.83,1073.5 1664.5,1070.5C 1666.75,1069.92 1668.42,1068.59 1669.5,1066.5C 1672.83,1062.5 1676.5,1058.83 1680.5,1055.5C 1682.75,1054.92 1684.42,1053.59 1685.5,1051.5C 1688.83,1047.5 1692.5,1043.83 1696.5,1040.5C 1698.75,1039.92 1700.42,1038.59 1701.5,1036.5C 1704.5,1032.83 1707.83,1029.5 1711.5,1026.5C 1713.75,1025.92 1715.42,1024.59 1716.5,1022.5C 1719.17,1019.17 1722.17,1016.17 1725.5,1013.5C 1727.75,1012.92 1729.42,1011.59 1730.5,1009.5C 1733.83,1005.5 1737.5,1001.83 1741.5,998.5C 1744.09,997.581 1746.09,995.914 1747.5,993.5C 1750.5,989.833 1753.83,986.5 1757.5,983.5C 1760.09,982.581 1762.09,980.914 1763.5,978.5C 1766.17,975.167 1769.17,972.167 1772.5,969.5C 1774.75,968.92 1776.42,967.587 1777.5,965.5C 1778.62,963.948 1779.12,962.282 1779,960.5C 1655.83,845.333 1532.67,730.167 1409.5,615C 1389.24,593.876 1380.74,568.709 1384,539.5C 1389.79,505.721 1408.29,481.888 1439.5,468C 1472.5,457.112 1502.84,462.112 1530.5,483C 1676.89,620.056 1823.22,757.056 1969.5,894C 1984.34,907.652 1994.34,924.152 1999.5,943.5 Z"/></g>
<g><path style="opacity:1" fill="#5041a7" d="M 444.5,506.5 C 443.415,508.587 441.749,509.92 439.5,510.5C 440.585,508.413 442.251,507.08 444.5,506.5 Z"/></g>
<g><path style="opacity:1" fill="#4f40a6" d="M 429.5,520.5 C 428.089,522.914 426.089,524.581 423.5,525.5C 424.911,523.086 426.911,521.419 429.5,520.5 Z"/></g>
<g><path style="opacity:1" fill="#5041a8" d="M 413.5,535.5 C 412.415,537.587 410.749,538.92 408.5,539.5C 409.585,537.413 411.251,536.08 413.5,535.5 Z"/></g>
<g><path style="opacity:1" fill="#5041a7" d="M 398.5,549.5 C 397.415,551.587 395.749,552.92 393.5,553.5C 394.585,551.413 396.251,550.08 398.5,549.5 Z"/></g>
<g><path style="opacity:1" fill="#5041a7" d="M 367.5,578.5 C 366.415,580.587 364.749,581.92 362.5,582.5C 363.585,580.413 365.251,579.08 367.5,578.5 Z"/></g>
<g><path style="opacity:1" fill="#5041a8" d="M 351.5,593.5 C 350.415,595.587 348.749,596.92 346.5,597.5C 347.585,595.413 349.251,594.08 351.5,593.5 Z"/></g>
<g><path style="opacity:1" fill="#5041a7" d="M 336.5,607.5 C 335.415,609.587 333.749,610.92 331.5,611.5C 332.585,609.413 334.251,608.08 336.5,607.5 Z"/></g>
<g><path style="opacity:1" fill="#5041a7" d="M 320.5,622.5 C 319.415,624.587 317.749,625.92 315.5,626.5C 316.585,624.413 318.251,623.08 320.5,622.5 Z"/></g>
<g><path style="opacity:1" fill="#5041a8" d="M 304.5,637.5 C 303.415,639.587 301.749,640.92 299.5,641.5C 300.585,639.413 302.251,638.08 304.5,637.5 Z"/></g>
<g><path style="opacity:1" fill="#5041a7" d="M 289.5,651.5 C 288.415,653.587 286.749,654.92 284.5,655.5C 285.585,653.413 287.251,652.08 289.5,651.5 Z"/></g>
<g><path style="opacity:1" fill="#5041a8" d="M 273.5,666.5 C 272.415,668.587 270.749,669.92 268.5,670.5C 269.585,668.413 271.251,667.08 273.5,666.5 Z"/></g>
<g><path style="opacity:1" fill="#5041a7" d="M 258.5,680.5 C 257.415,682.587 255.749,683.92 253.5,684.5C 254.585,682.413 256.251,681.08 258.5,680.5 Z"/></g>
<g><path style="opacity:1" fill="#5041a7" d="M 242.5,695.5 C 241.415,697.587 239.749,698.92 237.5,699.5C 238.585,697.413 240.251,696.08 242.5,695.5 Z"/></g>
<g><path style="opacity:1" fill="#4f40a5" d="M 227.5,709.5 C 226.089,711.914 224.089,713.581 221.5,714.5C 222.911,712.086 224.911,710.419 227.5,709.5 Z"/></g>
<g><path style="opacity:1" fill="#4f40a6" d="M 209.5,726.5 C 208.415,728.587 206.749,729.92 204.5,730.5C 205.585,728.413 207.251,727.08 209.5,726.5 Z"/></g>
<g><path style="opacity:1" fill="#4f40a5" d="M 1777.5,965.5 C 1776.42,967.587 1774.75,968.92 1772.5,969.5C 1773.58,967.413 1775.25,966.08 1777.5,965.5 Z"/></g>
<g><path style="opacity:1" fill="#4f40a6" d="M 1763.5,978.5 C 1762.09,980.914 1760.09,982.581 1757.5,983.5C 1758.91,981.086 1760.91,979.419 1763.5,978.5 Z"/></g>
<g><path style="opacity:1" fill="#4f40a5" d="M 1747.5,993.5 C 1746.09,995.914 1744.09,997.581 1741.5,998.5C 1742.91,996.086 1744.91,994.419 1747.5,993.5 Z"/></g>
<g><path style="opacity:1" fill="#4f40a4" d="M 1730.5,1009.5 C 1729.42,1011.59 1727.75,1012.92 1725.5,1013.5C 1726.58,1011.41 1728.25,1010.08 1730.5,1009.5 Z"/></g>
<g><path style="opacity:1" fill="#5041a8" d="M 1716.5,1022.5 C 1715.42,1024.59 1713.75,1025.92 1711.5,1026.5C 1712.58,1024.41 1714.25,1023.08 1716.5,1022.5 Z"/></g>
<g><path style="opacity:1" fill="#4f40a4" d="M 1701.5,1036.5 C 1700.42,1038.59 1698.75,1039.92 1696.5,1040.5C 1697.58,1038.41 1699.25,1037.08 1701.5,1036.5 Z"/></g>
<g><path style="opacity:1" fill="#4e40a3" d="M 1685.5,1051.5 C 1684.42,1053.59 1682.75,1054.92 1680.5,1055.5C 1681.58,1053.41 1683.25,1052.08 1685.5,1051.5 Z"/></g>
<g><path style="opacity:1" fill="#5041a8" d="M 1669.5,1066.5 C 1668.42,1068.59 1666.75,1069.92 1664.5,1070.5C 1665.58,1068.41 1667.25,1067.08 1669.5,1066.5 Z"/></g>
<g><path style="opacity:1" fill="#4f40a4" d="M 1654.5,1080.5 C 1653.42,1082.59 1651.75,1083.92 1649.5,1084.5C 1650.58,1082.41 1652.25,1081.08 1654.5,1080.5 Z"/></g>
<g><path style="opacity:1" fill="#4f40a4" d="M 1638.5,1095.5 C 1637.42,1097.59 1635.75,1098.92 1633.5,1099.5C 1634.58,1097.41 1636.25,1096.08 1638.5,1095.5 Z"/></g>
<g><path style="opacity:1" fill="#5041a8" d="M 1622.5,1110.5 C 1621.42,1112.59 1619.75,1113.92 1617.5,1114.5C 1618.58,1112.41 1620.25,1111.08 1622.5,1110.5 Z"/></g>
<g><path style="opacity:1" fill="#4f40a6" d="M 1608.5,1123.5 C 1607.09,1125.91 1605.09,1127.58 1602.5,1128.5C 1603.91,1126.09 1605.91,1124.42 1608.5,1123.5 Z"/></g>
<g><path style="opacity:1" fill="#4f40a5" d="M 1592.5,1138.5 C 1591.42,1140.59 1589.75,1141.92 1587.5,1142.5C 1588.58,1140.41 1590.25,1139.08 1592.5,1138.5 Z"/></g>
<g><path style="opacity:1" fill="#4f40a6" d="M 1575.5,1154.5 C 1574.42,1156.59 1572.75,1157.92 1570.5,1158.5C 1571.58,1156.41 1573.25,1155.08 1575.5,1154.5 Z"/></g>
<g><path style="opacity:1" fill="#4f40a6" d="M 1558.5,1170.5 C 1557.09,1172.91 1555.09,1174.58 1552.5,1175.5C 1553.91,1173.09 1555.91,1171.42 1558.5,1170.5 Z"/></g>
</svg>
