<?xml version="1.0" standalone="no"?>
<!DOCTYPE svg PUBLIC "-//W3C//DTD SVG 20010904//EN"
 "http://www.w3.org/TR/2001/REC-SVG-20010904/DTD/svg10.dtd">
<svg version="1.0" xmlns="http://www.w3.org/2000/svg"
 width="1920.000000pt" height="1920.000000pt" viewBox="0 0 1920.000000 1920.000000"
 preserveAspectRatio="xMidYMid meet">

<g transform="translate(0.000000,1920.000000) scale(0.100000,-0.100000)"
fill="#000000" stroke="none">
<path d="M1 14628 c0 -3923 3 -4564 14 -4509 31 142 84 259 164 362 25 32 134
141 241 241 164 153 1377 1288 2659 2488 168 157 562 525 875 819 363 339 598
552 644 582 144 94 285 134 472 132 104 -1 140 -5 213 -27 312 -93 538 -332
601 -638 57 -275 -26 -562 -219 -762 -62 -65 -487 -463 -2860 -2680 -346 -324
-650 -608 -674 -632 l-45 -43 95 -89 c52 -49 695 -651 1429 -1337 734 -687
1502 -1405 1705 -1596 204 -191 390 -372 413 -402 59 -79 106 -169 138 -267
26 -79 28 -97 28 -250 1 -161 0 -167 -32 -260 -46 -133 -111 -238 -207 -335
-214 -213 -518 -295 -816 -221 -84 21 -230 94 -299 149 -43 35 -1395 1296
-2755 2571 -83 78 -461 432 -840 787 -380 355 -711 669 -737 698 -93 104 -157
233 -189 381 -17 82 -18 -66 -18 -4852 l-1 -4938 9600 0 9600 0 -1 4943 c-1
2718 -3 4931 -6 4917 -32 -208 -119 -374 -275 -526 -46 -45 -441 -416 -878
-824 -437 -409 -892 -834 -1010 -945 -118 -111 -535 -500 -925 -866 -391 -365
-871 -814 -1067 -998 -197 -184 -379 -350 -405 -369 -133 -96 -318 -154 -494
-154 -396 1 -729 264 -820 650 -18 73 -20 109 -16 222 5 149 19 212 72 327 65
140 105 184 603 650 262 246 540 506 617 578 77 73 673 631 1325 1240 652 610
1185 1112 1185 1116 0 5 -227 221 -505 481 -3104 2904 -3103 2903 -3157 2984
-66 99 -98 173 -125 283 -28 117 -22 330 12 436 93 291 316 502 615 581 101
26 302 24 409 -5 98 -26 205 -77 282 -134 32 -24 246 -218 474 -432 228 -214
552 -517 720 -674 168 -157 442 -414 610 -571 168 -158 800 -749 1405 -1314
605 -565 1122 -1053 1148 -1085 99 -115 165 -254 191 -399 12 -66 14 566 15
4506 l1 4582 -9600 0 -9600 0 1 -4572z m11566 766 c167 -34 300 -103 420 -218
124 -117 204 -254 243 -418 24 -101 27 -265 5 -367 -8 -39 -110 -326 -226
-638 -310 -835 -1442 -3879 -1574 -4233 -258 -692 -404 -1083 -525 -1410 -682
-1835 -1408 -3785 -1425 -3825 -49 -115 -176 -266 -291 -346 -65 -44 -197
-104 -279 -125 -98 -26 -293 -26 -395 0 -309 77 -540 305 -626 616 -25 89 -26
320 -2 405 15 55 208 576 1238 3345 104 278 405 1088 670 1800 265 712 546
1468 625 1680 128 343 561 1509 1040 2795 92 248 180 475 196 505 172 325 553
507 906 434z"/>
</g>
</svg>
