<?xml version="1.0" standalone="no"?>
<!DOCTYPE svg PUBLIC "-//W3C//DTD SVG 20010904//EN"
 "http://www.w3.org/TR/2001/REC-SVG-20010904/DTD/svg10.dtd">
<svg version="1.0" xmlns="http://www.w3.org/2000/svg"
 width="1920.000000pt" height="1920.000000pt" viewBox="0 0 1920.000000 1920.000000"
 preserveAspectRatio="xMidYMid meet">

<g transform="translate(0.000000,1920.000000) scale(0.100000,-0.100000)"
fill="#000000" stroke="none">
<path d="M9140 19189 c-1825 -86 -3629 -712 -5121 -1779 -653 -467 -1262
-1032 -1785 -1655 -1079 -1287 -1818 -2889 -2098 -4551 -56 -329 -123 -926
-114 -1016 2 -21 0 -38 -5 -38 -5 0 -6 -11 -3 -24 3 -14 2 -27 -2 -30 -13 -8
-14 -650 -2 -911 93 -2000 784 -3887 1999 -5460 411 -531 910 -1049 1436
-1491 1204 -1009 2679 -1720 4231 -2038 2736 -561 5585 102 7799 1813 531 411
1049 910 1491 1436 754 899 1355 1972 1729 3090 294 875 453 1728 495 2655 12
256 10 889 -2 896 -5 3 -5 16 -2 30 3 13 2 24 -4 24 -5 0 -8 18 -5 43 6 52
-29 439 -63 687 -227 1684 -886 3264 -1923 4605 -411 531 -910 1049 -1436
1491 -1204 1009 -2679 1720 -4231 2038 -771 158 -1594 222 -2384 185z m2197
-3785 c-3 -3 -12 -4 -19 -1 -8 3 -5 6 6 6 11 1 17 -2 13 -5z m166 -1 c-7 -2
-19 -2 -25 0 -7 3 -2 5 12 5 14 0 19 -2 13 -5z m64 -9 c-3 -3 -12 -4 -19 -1
-8 3 -5 6 6 6 11 1 17 -2 13 -5z m-717 -197 c0 -2 -19 -21 -42 -42 l-43 -40
40 43 c36 39 45 47 45 39z m1221 -104 c13 -16 12 -17 -3 -4 -17 13 -22 21 -14
21 2 0 10 -8 17 -17z m-6984 -350 c-20 -2 -52 -2 -70 0 -17 2 0 4 38 4 39 0
53 -2 32 -4z m9091 0 c-21 -2 -55 -2 -75 0 -21 2 -4 4 37 4 41 0 58 -2 38 -4z
m-8971 -9 c-3 -3 -12 -4 -19 -1 -8 3 -5 6 6 6 11 1 17 -2 13 -5z m8810 0 c-3
-3 -12 -4 -19 -1 -8 3 -5 6 6 6 11 1 17 -2 13 -5z m270 0 c-3 -3 -12 -4 -19
-1 -8 3 -5 6 6 6 11 1 17 -2 13 -5z m-2040 -66 c-3 -8 -6 -5 -6 6 -1 11 2 17
5 13 3 -3 4 -12 1 -19z m1373 -102 c0 -2 -8 -10 -17 -17 -16 -13 -17 -12 -4 4
13 16 21 21 21 13z m-8009 -23 c13 -16 12 -17 -3 -4 -10 7 -18 15 -18 17 0 8
8 3 21 -13z m-1121 -16 c0 -2 -19 -21 -42 -42 l-43 -40 40 43 c36 39 45 47 45
39z m10285 -57 c21 -22 37 -40 34 -40 -3 0 -23 18 -44 40 -21 22 -37 40 -34
40 3 0 23 -18 44 -40z m-9074 -17 c13 -16 12 -17 -3 -4 -10 7 -18 15 -18 17 0
8 8 3 21 -13z m6546 -5 c-3 -8 -6 -5 -6 6 -1 11 2 17 5 13 3 -3 4 -12 1 -19z
m1263 8 c0 -2 -8 -10 -17 -17 -16 -13 -17 -12 -4 4 13 16 21 21 21 13z m-9170
-69 c0 -2 -17 -19 -37 -38 l-38 -34 34 38 c33 34 41 42 41 34z m10595 -67 c21
-22 37 -40 34 -40 -3 0 -23 18 -44 40 -21 22 -37 40 -34 40 3 0 23 -18 44 -40z
m-10755 -83 c0 -2 -17 -19 -37 -38 l-38 -34 34 38 c33 34 41 42 41 34z m10905
-57 c21 -22 37 -40 34 -40 -3 0 -23 18 -44 40 -21 22 -37 40 -34 40 3 0 23
-18 44 -40z m-11095 -125 c-24 -25 -46 -45 -49 -45 -3 0 15 20 39 45 24 25 46
45 49 45 3 0 -15 -20 -39 -45z m11255 -25 c21 -22 37 -40 34 -40 -3 0 -23 18
-44 40 -21 22 -37 40 -34 40 3 0 23 -18 44 -40z m-1938 -22 c-3 -8 -6 -5 -6 6
-1 11 2 17 5 13 3 -3 4 -12 1 -19z m-7410 -10 c-3 -8 -6 -5 -6 6 -1 11 2 17 5
13 3 -3 4 -12 1 -19z m-2027 -51 c0 -2 -19 -21 -42 -42 l-43 -40 40 43 c36 39
45 47 45 39z m11526 -59 l29 -33 -32 29 c-18 17 -33 31 -33 33 0 8 8 1 36 -29z
m-9499 -100 c-3 -7 -5 -2 -5 12 0 14 2 19 5 13 2 -7 2 -19 0 -25z m-2187 9 c0
-2 -19 -21 -42 -42 l-43 -40 40 43 c36 39 45 47 45 39z m9597 -19 c-3 -8 -6
-5 -6 6 -1 11 2 17 5 13 3 -3 4 -12 1 -19z m2243 -33 c19 -19 32 -35 29 -35
-3 0 -20 16 -39 35 -19 19 -32 35 -29 35 3 0 20 -16 39 -35z m-11990 -88 c0
-2 -19 -21 -42 -42 l-43 -40 40 43 c36 39 45 47 45 39z m12145 -57 c21 -22 37
-40 34 -40 -3 0 -23 18 -44 40 -21 22 -37 40 -34 40 3 0 23 -18 44 -40z
m-12295 -83 c0 -2 -19 -21 -42 -42 l-43 -40 40 43 c36 39 45 47 45 39z m12490
-104 c0 -8 -9 0 -50 45 l-45 47 48 -45 c26 -24 47 -45 47 -47z m-12660 -56 c0
-2 -17 -19 -37 -38 l-38 -34 34 38 c33 34 41 42 41 34z m10320 -62 c35 -36 62
-65 59 -65 -2 0 -34 29 -69 65 -35 36 -62 65 -59 65 2 0 34 -29 69 -65z
m-7910 0 c-24 -25 -46 -45 -49 -45 -3 0 15 20 39 45 24 25 46 45 49 45 3 0
-15 -20 -39 -45z m10370 10 c19 -19 32 -35 29 -35 -3 0 -20 16 -39 35 -19 19
-32 35 -29 35 3 0 20 -16 39 -35z m-12930 -88 c0 -2 -17 -19 -37 -38 l-38 -34
34 38 c33 34 41 42 41 34z m13080 -52 c19 -19 32 -35 29 -35 -3 0 -20 16 -39
35 -19 19 -32 35 -29 35 3 0 20 -16 39 -35z m-10640 22 c0 -2 -19 -21 -42 -42
l-43 -40 40 43 c36 39 45 47 45 39z m8250 -104 c0 -8 -9 0 -50 45 l-45 47 48
-45 c26 -24 47 -45 47 -47z m-10850 -16 c0 -2 -17 -19 -37 -38 l-38 -34 34 38
c33 34 41 42 41 34z m13440 -94 c0 -8 -9 0 -50 45 l-45 47 48 -45 c26 -24 47
-45 47 -47z m-11000 64 c0 -2 -17 -19 -37 -38 l-38 -34 34 38 c33 34 41 42 41
34z m8525 -57 c21 -22 37 -40 34 -40 -3 0 -23 18 -44 40 -21 22 -37 40 -34 40
3 0 23 -18 44 -40z m-11145 -85 c-24 -25 -46 -45 -49 -45 -3 0 15 20 39 45 24
25 46 45 49 45 3 0 -15 -20 -39 -45z m2470 2 c0 -2 -19 -21 -42 -42 l-43 -40
40 43 c36 39 45 47 45 39z m11270 -32 c19 -19 32 -35 29 -35 -3 0 -20 16 -39
35 -19 19 -32 35 -29 35 3 0 20 -16 39 -35z m-2400 -72 c0 -8 -9 0 -50 45
l-45 47 48 -45 c26 -24 47 -45 47 -47z m-11470 -16 c0 -2 -17 -19 -37 -38
l-38 -34 34 38 c33 34 41 42 41 34z m14020 -52 c19 -19 32 -35 29 -35 -3 0
-20 16 -39 35 -19 19 -32 35 -29 35 3 0 20 -16 39 -35z m-11580 22 c0 -2 -17
-19 -37 -38 l-38 -34 34 38 c33 34 41 42 41 34z m9145 -57 c21 -22 37 -40 34
-40 -3 0 -23 18 -44 40 -21 22 -37 40 -34 40 3 0 23 -18 44 -40z m-11735 -53
c0 -2 -19 -21 -42 -42 l-43 -40 40 43 c36 39 45 47 45 39z m2440 -30 c0 -2
-19 -21 -42 -42 l-43 -40 40 43 c36 39 45 47 45 39z m11890 -32 c19 -19 32
-35 29 -35 -3 0 -20 16 -39 35 -19 19 -32 35 -29 35 3 0 20 -16 39 -35z
m-2400 -72 c0 -8 -9 0 -50 45 l-45 47 48 -45 c26 -24 47 -45 47 -47z m-12090
-16 c0 -2 -17 -19 -37 -38 l-38 -34 34 38 c33 34 41 42 41 34z m14640 -52 c19
-19 32 -35 29 -35 -3 0 -20 16 -39 35 -19 19 -32 35 -29 35 3 0 20 -16 39 -35z
m-12200 22 c0 -2 -19 -21 -42 -42 l-43 -40 40 43 c36 39 45 47 45 39z m9800
-94 c0 -8 -9 0 -50 45 l-45 47 48 -45 c26 -24 47 -45 47 -47z m-12390 -16 c0
-2 -19 -21 -42 -42 l-43 -40 40 43 c36 39 45 47 45 39z m14945 -57 c21 -22 37
-40 34 -40 -3 0 -23 18 -44 40 -21 22 -37 40 -34 40 3 0 23 -18 44 -40z
m-12505 27 c0 -2 -19 -21 -42 -42 l-43 -40 40 43 c36 39 45 47 45 39z m10070
-62 c19 -19 32 -35 29 -35 -3 0 -20 16 -39 35 -19 19 -32 35 -29 35 3 0 20
-16 39 -35z m-12660 -48 c0 -2 -19 -21 -42 -42 l-43 -40 40 43 c36 39 45 47
45 39z m15250 -62 c19 -19 32 -35 29 -35 -3 0 -20 16 -39 35 -19 19 -32 35
-29 35 3 0 20 -16 39 -35z m-12820 22 c0 -2 -19 -21 -42 -42 l-43 -40 40 43
c36 39 45 47 45 39z m10385 -57 c21 -22 37 -40 34 -40 -3 0 -23 18 -44 40 -21
22 -37 40 -34 40 3 0 23 -18 44 -40z m-12975 -53 c0 -2 -19 -21 -42 -42 l-43
-40 40 43 c36 39 45 47 45 39z m2450 -20 c0 -1 -24 -25 -52 -52 l-53 -50 50
53 c46 48 55 57 55 49z m13115 -37 c21 -22 37 -40 34 -40 -3 0 -23 18 -44 40
-21 22 -37 40 -34 40 3 0 23 -18 44 -40z m-2430 -40 c21 -22 37 -40 34 -40 -3
0 -23 18 -44 40 -21 22 -37 40 -34 40 3 0 23 -18 44 -40z m-13285 -43 c0 -2
-19 -21 -42 -42 l-43 -40 40 43 c36 39 45 47 45 39z m15875 -67 c21 -22 37
-40 34 -40 -3 0 -23 18 -44 40 -21 22 -37 40 -34 40 3 0 23 -18 44 -40z
m-13455 17 c0 -2 -19 -21 -42 -42 l-43 -40 40 43 c36 39 45 47 45 39z m11020
-52 c19 -19 32 -35 29 -35 -3 0 -20 16 -39 35 -19 19 -32 35 -29 35 3 0 20
-16 39 -35z m-13600 -48 c0 -2 -19 -21 -42 -42 l-43 -40 40 43 c36 39 45 47
45 39z m16230 -104 c0 -8 -9 0 -50 45 l-45 47 48 -45 c26 -24 47 -45 47 -47z
m-13800 64 c0 -2 -19 -21 -42 -42 l-43 -40 40 43 c36 39 45 47 45 39z m11315
-47 c21 -22 37 -40 34 -40 -3 0 -23 18 -44 40 -21 22 -37 40 -34 40 3 0 23
-18 44 -40z m-13905 -63 c0 -2 -17 -19 -37 -38 l-38 -34 34 38 c33 34 41 42
41 34z m16505 -57 c21 -22 37 -40 34 -40 -3 0 -23 18 -44 40 -21 22 -37 40
-34 40 3 0 23 -18 44 -40z m-14075 17 c0 -2 -19 -21 -42 -42 l-43 -40 40 43
c36 39 45 47 45 39z m11635 -47 c21 -22 37 -40 34 -40 -3 0 -23 18 -44 40 -21
22 -37 40 -34 40 3 0 23 -18 44 -40z m-14215 -53 c0 -2 -19 -21 -42 -42 l-43
-40 40 43 c36 39 45 47 45 39z m16815 -67 c21 -22 37 -40 34 -40 -3 0 -23 18
-44 40 -21 22 -37 40 -34 40 3 0 23 -18 44 -40z m-14385 27 c0 -2 -19 -21 -42
-42 l-43 -40 40 43 c36 39 45 47 45 39z m11950 -62 c19 -19 32 -35 29 -35 -3
0 -20 16 -39 35 -19 19 -32 35 -29 35 3 0 20 -16 39 -35z m-14540 -48 c0 -2
-19 -21 -42 -42 l-43 -40 40 43 c36 39 45 47 45 39z m17125 -57 c21 -22 37
-40 34 -40 -3 0 -23 18 -44 40 -21 22 -37 40 -34 40 3 0 23 -18 44 -40z
m-14685 27 c0 -2 -19 -21 -42 -42 l-43 -40 40 43 c36 39 45 47 45 39z m12250
-62 c19 -19 32 -35 29 -35 -3 0 -20 16 -39 35 -19 19 -32 35 -29 35 3 0 20
-16 39 -35z m-14840 -48 c0 -2 -19 -21 -42 -42 l-43 -40 40 43 c36 39 45 47
45 39z m17470 -104 c0 -8 -9 0 -50 45 l-45 47 48 -45 c26 -24 47 -45 47 -47z
m-15030 74 c0 -2 -19 -21 -42 -42 l-43 -40 40 43 c36 39 45 47 45 39z m12555
-67 c21 -22 37 -40 34 -40 -3 0 -23 18 -44 40 -21 22 -37 40 -34 40 3 0 23
-18 44 -40z m-15155 -53 c0 -2 -19 -21 -42 -42 l-43 -40 40 43 c36 39 45 47
45 39z m17790 -104 c0 -8 -9 0 -50 45 l-45 47 48 -45 c26 -24 47 -45 47 -47z
m-15350 74 c0 -2 -19 -21 -42 -42 l-43 -40 40 43 c36 39 45 47 45 39z m12875
-67 c21 -22 37 -40 34 -40 -3 0 -23 18 -44 40 -21 22 -37 40 -34 40 3 0 23
-18 44 -40z m-15475 -53 c0 -2 -17 -19 -37 -38 l-38 -34 34 38 c33 34 41 42
41 34z m18060 -52 c19 -19 32 -35 29 -35 -3 0 -20 16 -39 35 -19 19 -32 35
-29 35 3 0 20 -16 39 -35z m-15630 12 c0 -2 -17 -19 -37 -38 l-38 -34 34 38
c33 34 41 42 41 34z m13200 -52 c19 -19 32 -35 29 -35 -3 0 -20 16 -39 35 -19
19 -32 35 -29 35 3 0 20 -16 39 -35z m-15820 -90 c-24 -25 -46 -45 -49 -45 -3
0 15 20 39 45 24 25 46 45 49 45 3 0 -15 -20 -39 -45z m18405 -15 c21 -22 37
-40 34 -40 -3 0 -23 18 -44 40 -21 22 -37 40 -34 40 3 0 23 -18 44 -40z
m-15925 27 c0 -2 -19 -21 -42 -42 l-43 -40 40 43 c36 39 45 47 45 39z m13530
-104 c0 -8 -9 0 -50 45 l-45 47 48 -45 c26 -24 47 -45 47 -47z m-16130 -16 c0
-2 -19 -21 -42 -42 l-43 -40 40 43 c36 39 45 47 45 39z m18665 -37 c10 -11 16
-20 13 -20 -3 0 -13 9 -23 20 -10 11 -16 20 -13 20 3 0 13 -9 23 -20z m-16225
7 c0 -2 -19 -21 -42 -42 l-43 -40 40 43 c36 39 45 47 45 39z m13850 -104 c0
-8 -9 0 -50 45 l-45 47 48 -45 c26 -24 47 -45 47 -47z m-14010 -46 c0 -2 -17
-19 -37 -38 l-38 -34 34 38 c33 34 41 42 41 34z m14130 -62 c19 -19 32 -35 29
-35 -3 0 -20 16 -39 35 -19 19 -32 35 -29 35 3 0 20 -16 39 -35z m-14280 -78
c0 -2 -19 -21 -42 -42 l-43 -40 40 43 c36 39 45 47 45 39z m14430 -62 c19 -19
32 -35 29 -35 -3 0 -20 16 -39 35 -19 19 -32 35 -29 35 3 0 20 -16 39 -35z
m-14590 -88 c0 -2 -19 -21 -42 -42 l-43 -40 40 43 c36 39 45 47 45 39z m14780
-94 c0 -8 -9 0 -50 45 l-45 47 48 -45 c26 -24 47 -45 47 -47z m-14920 -37 c0
-2 -8 -10 -17 -17 -16 -13 -17 -12 -4 4 13 16 21 21 21 13z m14960 -69 c0 -2
-17 -19 -37 -38 l-38 -34 34 38 c33 34 41 42 41 34z m-14905 -47 c21 -22 37
-40 34 -40 -3 0 -23 18 -44 40 -21 22 -37 40 -34 40 3 0 23 -18 44 -40z
m17012 -62 c-3 -8 -6 -5 -6 6 -1 11 2 17 5 13 3 -3 4 -12 1 -19z m-2257 -31
c0 -2 -17 -19 -37 -38 l-38 -34 34 38 c33 34 41 42 41 34z m-14595 -57 c21
-22 37 -40 34 -40 -3 0 -23 18 -44 40 -21 22 -37 40 -34 40 3 0 23 -18 44 -40z
m14435 -93 c0 -2 -17 -19 -37 -38 l-38 -34 34 38 c33 34 41 42 41 34z m-14275
-57 c21 -22 37 -40 34 -40 -3 0 -23 18 -44 40 -21 22 -37 40 -34 40 3 0 23
-18 44 -40z m14085 -125 c-24 -25 -46 -45 -49 -45 -3 0 15 20 39 45 24 25 46
45 49 45 3 0 -15 -20 -39 -45z m-13890 -62 c0 -8 -9 0 -50 45 l-45 47 48 -45
c26 -24 47 -45 47 -47z m13770 -46 c0 -2 -19 -21 -42 -42 l-43 -40 40 43 c36
39 45 47 45 39z m-13655 -57 c21 -22 37 -40 34 -40 -3 0 -23 18 -44 40 -21 22
-37 40 -34 40 3 0 23 -18 44 -40z m16095 27 c0 -2 -19 -21 -42 -42 l-43 -40
40 43 c36 39 45 47 45 39z m-18530 -62 c19 -19 32 -35 29 -35 -3 0 -20 16 -39
35 -19 19 -32 35 -29 35 3 0 20 -16 39 -35z m15940 -48 c0 -2 -19 -21 -42 -42
l-43 -40 40 43 c36 39 45 47 45 39z m-13350 -62 c19 -19 32 -35 29 -35 -3 0
-20 16 -39 35 -19 19 -32 35 -29 35 3 0 20 -16 39 -35z m15790 32 c0 -2 -19
-21 -42 -42 l-43 -40 40 43 c36 39 45 47 45 39z m-18190 -104 c0 -8 -9 0 -50
45 l-45 47 48 -45 c26 -24 47 -45 47 -47z m15590 -16 c0 -2 -17 -19 -37 -38
l-38 -34 34 38 c33 34 41 42 41 34z m-13040 -52 c19 -19 32 -35 29 -35 -3 0
-20 16 -39 35 -19 19 -32 35 -29 35 3 0 20 -16 39 -35z m15480 22 c0 -2 -19
-21 -42 -42 l-43 -40 40 43 c36 39 45 47 45 39z m-17915 -57 c21 -22 37 -40
34 -40 -3 0 -23 18 -44 40 -21 22 -37 40 -34 40 3 0 23 -18 44 -40z m15315
-63 c0 -2 -17 -19 -37 -38 l-38 -34 34 38 c33 34 41 42 41 34z m-12730 -42
c19 -19 32 -35 29 -35 -3 0 -20 16 -39 35 -19 19 -32 35 -29 35 3 0 20 -16 39
-35z m15170 12 c0 -2 -19 -21 -42 -42 l-43 -40 40 43 c36 39 45 47 45 39z
m-17595 -57 c21 -22 37 -40 34 -40 -3 0 -23 18 -44 40 -21 22 -37 40 -34 40 3
0 23 -18 44 -40z m15005 -53 c0 -2 -17 -19 -37 -38 l-38 -34 34 38 c33 34 41
42 41 34z m-12415 -57 c21 -22 37 -40 34 -40 -3 0 -23 18 -44 40 -21 22 -37
40 -34 40 3 0 23 -18 44 -40z m14825 -5 c-24 -25 -46 -45 -49 -45 -3 0 15 20
39 45 24 25 46 45 49 45 3 0 -15 -20 -39 -45z m-17260 -30 c19 -19 32 -35 29
-35 -3 0 -20 16 -39 35 -19 19 -32 35 -29 35 3 0 20 -16 39 -35z m14690 -58
c0 -2 -19 -21 -42 -42 l-43 -40 40 43 c36 39 45 47 45 39z m-12100 -52 c19
-19 32 -35 29 -35 -3 0 -20 16 -39 35 -19 19 -32 35 -29 35 3 0 20 -16 39 -35z
m14540 22 c0 -2 -19 -21 -42 -42 l-43 -40 40 43 c36 39 45 47 45 39z m-16975
-57 c21 -22 37 -40 34 -40 -3 0 -23 18 -44 40 -21 22 -37 40 -34 40 3 0 23
-18 44 -40z m14385 -53 c0 -2 -19 -21 -42 -42 l-43 -40 40 43 c36 39 45 47 45
39z m-11750 -104 c0 -8 -9 0 -50 45 l-45 47 48 -45 c26 -24 47 -45 47 -47z
m14180 64 c0 -2 -17 -19 -37 -38 l-38 -34 34 38 c33 34 41 42 41 34z m-16660
-52 c19 -19 32 -35 29 -35 -3 0 -20 16 -39 35 -19 19 -32 35 -29 35 3 0 20
-16 39 -35z m14080 -48 c0 -2 -19 -21 -42 -42 l-43 -40 40 43 c36 39 45 47 45
39z m-11495 -57 c21 -22 37 -40 34 -40 -3 0 -23 18 -44 40 -21 22 -37 40 -34
40 3 0 23 -18 44 -40z m13925 17 c0 -2 -19 -21 -42 -42 l-43 -40 40 43 c36 39
45 47 45 39z m-16360 -52 c19 -19 32 -35 29 -35 -3 0 -20 16 -39 35 -19 19
-32 35 -29 35 3 0 20 -16 39 -35z m13770 -58 c0 -2 -17 -19 -37 -38 l-38 -34
34 38 c33 34 41 42 41 34z m-11130 -104 c0 -8 -9 0 -50 45 l-45 47 48 -45 c26
-24 47 -45 47 -47z m13560 64 c0 -2 -19 -21 -42 -42 l-43 -40 40 43 c36 39 45
47 45 39z m-16035 -57 c21 -22 37 -40 34 -40 -3 0 -23 18 -44 40 -21 22 -37
40 -34 40 3 0 23 -18 44 -40z m13455 -43 c0 -2 -19 -21 -42 -42 l-43 -40 40
43 c36 39 45 47 45 39z m-10875 -57 c21 -22 37 -40 34 -40 -3 0 -23 18 -44 40
-21 22 -37 40 -34 40 3 0 23 -18 44 -40z m13305 17 c0 -2 -19 -21 -42 -42
l-43 -40 40 43 c36 39 45 47 45 39z m-15740 -52 c19 -19 32 -35 29 -35 -3 0
-20 16 -39 35 -19 19 -32 35 -29 35 3 0 20 -16 39 -35z m13150 -58 c0 -2 -17
-19 -37 -38 l-38 -34 34 38 c33 34 41 42 41 34z m-10510 -104 c0 -8 -9 0 -50
45 l-45 47 48 -45 c26 -24 47 -45 47 -47z m12940 64 c0 -2 -19 -21 -42 -42
l-43 -40 40 43 c36 39 45 47 45 39z m-15415 -57 c21 -22 37 -40 34 -40 -3 0
-23 18 -44 40 -21 22 -37 40 -34 40 3 0 23 -18 44 -40z m12795 -85 c-24 -25
-46 -45 -49 -45 -3 0 15 20 39 45 24 25 46 45 49 45 3 0 -15 -20 -39 -45z
m-10205 -25 c21 -22 37 -40 34 -40 -3 0 -23 18 -44 40 -21 22 -37 40 -34 40 3
0 23 -18 44 -40z m12675 27 c0 -2 -17 -19 -37 -38 l-38 -34 34 38 c33 34 41
42 41 34z m-15115 -57 c21 -22 37 -40 34 -40 -3 0 -23 18 -44 40 -21 22 -37
40 -34 40 3 0 23 -18 44 -40z m12515 -63 c0 -2 -17 -19 -37 -38 l-38 -34 34
38 c33 34 41 42 41 34z m-9930 -42 c19 -19 32 -35 29 -35 -3 0 -20 16 -39 35
-19 19 -32 35 -29 35 3 0 20 -16 39 -35z m12370 12 c0 -2 -19 -21 -42 -42
l-43 -40 40 43 c36 39 45 47 45 39z m-14795 -57 c21 -22 37 -40 34 -40 -3 0
-23 18 -44 40 -21 22 -37 40 -34 40 3 0 23 -18 44 -40z m12175 -85 c-24 -25
-46 -45 -49 -45 -3 0 15 20 39 45 24 25 46 45 49 45 3 0 -15 -20 -39 -45z
m-9585 -25 c21 -22 37 -40 34 -40 -3 0 -23 18 -44 40 -21 22 -37 40 -34 40 3
0 23 -18 44 -40z m12055 27 c0 -2 -19 -21 -42 -42 l-43 -40 40 43 c36 39 45
47 45 39z m-14495 -57 c21 -22 37 -40 34 -40 -3 0 -23 18 -44 40 -21 22 -37
40 -34 40 3 0 23 -18 44 -40z m11905 -53 c0 -2 -17 -19 -37 -38 l-38 -34 34
38 c33 34 41 42 41 34z m-9315 -57 c21 -22 37 -40 34 -40 -3 0 -23 18 -44 40
-21 22 -37 40 -34 40 3 0 23 -18 44 -40z m11755 27 c0 -2 -19 -21 -42 -42
l-43 -40 40 43 c36 39 45 47 45 39z m-14185 -67 c21 -22 37 -40 34 -40 -3 0
-23 18 -44 40 -21 22 -37 40 -34 40 3 0 23 -18 44 -40z m11585 -53 c0 -2 -19
-21 -42 -42 l-43 -40 40 43 c36 39 45 47 45 39z m-8995 -57 c21 -22 37 -40 34
-40 -3 0 -23 18 -44 40 -21 22 -37 40 -34 40 3 0 23 -18 44 -40z m11435 27 c0
-2 -19 -21 -42 -42 l-43 -40 40 43 c36 39 45 47 45 39z m-13870 -62 c19 -19
32 -35 29 -35 -3 0 -20 16 -39 35 -19 19 -32 35 -29 35 3 0 20 -16 39 -35z
m11270 -58 c0 -2 -17 -19 -37 -38 l-38 -34 34 38 c33 34 41 42 41 34z m-8680
-52 c19 -19 32 -35 29 -35 -3 0 -20 16 -39 35 -19 19 -32 35 -29 35 3 0 20
-16 39 -35z m11090 -10 c-24 -25 -46 -45 -49 -45 -3 0 15 20 39 45 24 25 46
45 49 45 3 0 -15 -20 -39 -45z m-13520 -30 c19 -19 32 -35 29 -35 -3 0 -20 16
-39 35 -19 19 -32 35 -29 35 3 0 20 -16 39 -35z m10960 -48 c0 -2 -19 -21 -42
-42 l-43 -40 40 43 c36 39 45 47 45 39z m-8375 -57 c21 -22 37 -40 34 -40 -3
0 -23 18 -44 40 -21 22 -37 40 -34 40 3 0 23 -18 44 -40z m10815 27 c0 -2 -19
-21 -42 -42 l-43 -40 40 43 c36 39 45 47 45 39z m-13255 -57 c21 -22 37 -40
34 -40 -3 0 -23 18 -44 40 -21 22 -37 40 -34 40 3 0 23 -18 44 -40z m10655
-63 c0 -2 -17 -19 -37 -38 l-38 -34 34 38 c33 34 41 42 41 34z m-8065 -47 c21
-22 37 -40 34 -40 -3 0 -23 18 -44 40 -21 22 -37 40 -34 40 3 0 23 -18 44 -40z
m10505 17 c0 -2 -19 -21 -42 -42 l-43 -40 40 43 c36 39 45 47 45 39z m-12935
-57 c21 -22 37 -40 34 -40 -3 0 -23 18 -44 40 -21 22 -37 40 -34 40 3 0 23
-18 44 -40z m2525 -55 c13 -14 21 -25 18 -25 -2 0 -15 11 -28 25 -13 14 -21
25 -18 25 2 0 15 -11 28 -25z m7820 -9 c0 -2 -8 -10 -17 -17 -16 -13 -17 -12
-4 4 13 16 21 21 21 13z m2430 -29 c0 -2 -17 -19 -37 -38 l-38 -34 34 38 c33
34 41 42 41 34z m-12620 -52 c19 -19 32 -35 29 -35 -3 0 -20 16 -39 35 -19 19
-32 35 -29 35 3 0 20 -16 39 -35z m12470 -88 c0 -2 -19 -21 -42 -42 l-43 -40
40 43 c36 39 45 47 45 39z m-12315 -57 c21 -22 37 -40 34 -40 -3 0 -23 18 -44
40 -21 22 -37 40 -34 40 3 0 23 -18 44 -40z m12155 -93 c0 -2 -19 -21 -42 -42
l-43 -40 40 43 c36 39 45 47 45 39z m-12000 -52 c19 -19 32 -35 29 -35 -3 0
-20 16 -39 35 -19 19 -32 35 -29 35 3 0 20 -16 39 -35z m9677 -77 c-3 -8 -6
-5 -6 6 -1 11 2 17 5 13 3 -3 4 -12 1 -19z m-7410 -10 c-3 -8 -6 -5 -6 6 -1
11 2 17 5 13 3 -3 4 -12 1 -19z m9583 -1 c0 -2 -19 -21 -42 -42 l-43 -40 40
43 c36 39 45 47 45 39z m-11690 -62 c19 -19 32 -35 29 -35 -3 0 -20 16 -39 35
-19 19 -32 35 -29 35 3 0 20 -16 39 -35z m11530 -88 c0 -2 -17 -19 -37 -38
l-38 -34 34 38 c33 34 41 42 41 34z m-11380 -52 c19 -19 32 -35 29 -35 -3 0
-20 16 -39 35 -19 19 -32 35 -29 35 3 0 20 -16 39 -35z m1957 -7 c-3 -7 -5 -2
-5 12 0 14 2 19 5 13 2 -7 2 -19 0 -25z m7410 -10 c-3 -8 -6 -5 -6 6 -1 11 2
17 5 13 3 -3 4 -12 1 -19z m1863 -71 c0 -2 -19 -21 -42 -42 l-43 -40 40 43
c36 39 45 47 45 39z m-11075 -57 c21 -22 37 -40 34 -40 -3 0 -23 18 -44 40
-21 22 -37 40 -34 40 3 0 23 -18 44 -40z m10915 -93 c0 -2 -19 -21 -42 -42
l-43 -40 40 43 c36 39 45 47 45 39z m-10750 -62 c19 -19 32 -35 29 -35 -3 0
-20 16 -39 35 -19 19 -32 35 -29 35 3 0 20 -16 39 -35z m10590 -88 c0 -2 -17
-19 -37 -38 l-38 -34 34 38 c33 34 41 42 41 34z m-10445 -47 c21 -22 37 -40
34 -40 -3 0 -23 18 -44 40 -21 22 -37 40 -34 40 3 0 23 -18 44 -40z m9145 -55
c30 -30 52 -55 49 -55 -2 0 -29 25 -59 55 -30 30 -52 55 -49 55 2 0 29 -25 59
-55z m-7890 0 c-24 -25 -46 -45 -49 -45 -3 0 15 20 39 45 24 25 46 45 49 45 3
0 -15 -20 -39 -45z m9050 -28 c0 -2 -10 -12 -22 -23 l-23 -19 19 23 c18 21 26
27 26 19z m-9753 -213 c-3 -3 -12 -4 -19 -1 -8 3 -5 6 6 6 11 1 17 -2 13 -5z
m230 0 c-3 -3 -12 -4 -19 -1 -8 3 -5 6 6 6 11 1 17 -2 13 -5z m8850 0 c-3 -3
-12 -4 -19 -1 -8 3 -5 6 6 6 11 1 17 -2 13 -5z m230 0 c-3 -3 -12 -4 -19 -1
-8 3 -5 6 6 6 11 1 17 -2 13 -5z m-9200 -10 c-3 -3 -12 -4 -19 -1 -8 3 -5 6 6
6 11 1 17 -2 13 -5z m9090 0 c-3 -3 -12 -4 -19 -1 -8 3 -5 6 6 6 11 1 17 -2
13 -5z m-7280 -466 c-3 -7 -5 -2 -5 12 0 14 2 19 5 13 2 -7 2 -19 0 -25z m0
-160 c-3 -7 -5 -2 -5 12 0 14 2 19 5 13 2 -7 2 -19 0 -25z m208 -468 c10 -11
16 -20 13 -20 -3 0 -13 9 -23 20 -10 11 -16 20 -13 20 3 0 13 -9 23 -20z
m1285 17 c0 -2 -10 -12 -22 -23 l-23 -19 19 23 c18 21 26 27 26 19z m-1205
-97 c10 -11 16 -20 13 -20 -3 0 -13 9 -23 20 -10 11 -16 20 -13 20 3 0 13 -9
23 -20z m1125 16 c0 -2 -8 -10 -17 -17 -16 -13 -17 -12 -4 4 13 16 21 21 21
13z m-703 -212 c-3 -3 -12 -4 -19 -1 -8 3 -5 6 6 6 11 1 17 -2 13 -5z m66 -11
c-7 -2 -19 -2 -25 0 -7 3 -2 5 12 5 14 0 19 -2 13 -5z m154 1 c-3 -3 -12 -4
-19 -1 -8 3 -5 6 6 6 11 1 17 -2 13 -5z"/>
</g>
</svg>
